<?xml version="1.0" encoding="utf-8"?>
<!-- Generator: Adobe Illustrator 18.1.1, SVG Export Plug-In . SVG Version: 6.00 Build 0)  -->
<svg version="1.1" id="Layer_1" xmlns="http://www.w3.org/2000/svg" xmlns:xlink="http://www.w3.org/1999/xlink" x="0px" y="0px"
	 viewBox="0 0 1788 1176.8" enable-background="new 0 0 1788 1176.8" xml:space="preserve">
<g>
	<linearGradient id="SVGID_1_" gradientUnits="userSpaceOnUse" x1="549.3408" y1="521.3115" x2="1037.3612" y2="435.2603">
		<stop  offset="0" style="stop-color:#CDC228"/>
		<stop  offset="1.385960e-002" style="stop-color:#CCB529"/>
		<stop  offset="4.473797e-002" style="stop-color:#C99B2B"/>
		<stop  offset="7.943475e-002" style="stop-color:#C8842C"/>
		<stop  offset="0.1172" style="stop-color:#C6702B"/>
		<stop  offset="0.159" style="stop-color:#C55E2B"/>
		<stop  offset="0.2061" style="stop-color:#C44D2B"/>
		<stop  offset="0.2611" style="stop-color:#C43E2B"/>
		<stop  offset="0.3292" style="stop-color:#C3322A"/>
		<stop  offset="0.4247" style="stop-color:#C32A2A"/>
		<stop  offset="0.6897" style="stop-color:#C3282A"/>
		<stop  offset="0.745" style="stop-color:#C02729"/>
		<stop  offset="0.7972" style="stop-color:#B92527"/>
		<stop  offset="0.8482" style="stop-color:#AD2223"/>
		<stop  offset="0.8984" style="stop-color:#9C1D1D"/>
		<stop  offset="0.948" style="stop-color:#851413"/>
		<stop  offset="0.9965" style="stop-color:#6C0603"/>
		<stop  offset="1" style="stop-color:#6A0502"/>
	</linearGradient>
	<path fill="url(#SVGID_1_)" d="M965.9,549c-1.9-1.7-3,0.5-4.2,1.2c-6.3,3.3-12.9,4.9-20.2,3.6c2.8-1.3,5.6-2.4,8.3-3.8
		c13.7-7.2,19.3-19.1,19.8-34c0.4-10.7-1.2-21.2-1.7-32.4c4.9,2.8,9.5,5.6,15.2,5.5c5.6-0.2,10.8-1.5,16.2-5.1
		c-0.5,11.3-3.2,21.3-7.4,32.3c5.4-1.9,8.8-4.9,13.1-7.9c-0.1,14.5-3.8,27.3-9.7,41.1c8.2-3.4,13.6-8.1,18.4-15
		c2.8,9.5,3.9,18.5,4.8,27.5c1.5,14.6,0.9,29.2-1,43.8c-0.3,2.4-4.2,5.6-0.3,7.4c3.5,1.5,7.5,0.1,10.6-2.6c0.4-0.3,0.8-0.6,2-1.5
		c2,18.8,3.7,37.2,6.1,55.6c-10.8-15.6-19.2-32.5-28.1-50.4c-1.6,5.2-3.2,9.2-6.6,12.3c-1.2,1.1-0.4,2.5,0.1,3.7
		c1.6,4.2,3.1,8.4,4.7,12.6c1.7,4.7,2.6,9.3,0.3,14c-0.8,1.6-0.3,2.9,0.4,4.2c4.9,9.4,9.6,18.9,15.2,27.9c0.4,0.9,0.8,2.1,2,1.3
		c1.2-0.8,0.6-2-0.2-2.9c-5.5-13.6-8.5-27.8-10.7-42.2c8.1,17.1,18.6,32.9,25.3,50.8c3.2,8.6,8.2,16.4,11,25.2
		c3.4,10.3,4.5,20.7,2.4,31.5c-0.8,3.9-0.1,8.1-1.1,12.6c-2.9-4.3-6-8.5-8.5-13c-10.6-18.6-24.8-34.7-37.4-51.8
		c-1.3-1.8-2.4-1.7-4.1-0.5c-9.5,6.9-20.1,11.8-31,16.1c-3.1,1.2-4.2,2.6-2.7,5.8c2.8,5.9,4.2,12.5-1.6,16.9
		c-6.4,4.9-13.9,8.7-22.7,6c-3.8-1.2-5.7-4.3-7-7.9c-2.6-6.9-2.6-6.9-9.9-4.7c-8.9,2.7-17.9,5.2-27.2,6.6c-5.2,0.8-10.3,0-15.4-1.1
		c-2.2-0.5-3.4-2.2-4.6-4.1c-2.8-4.3-4.1-9.1-5.7-13.8c-1-2.9-2.6-4.3-5.4-5c-13.9-3.8-27.2-8.9-39.8-15.9c-4.5-2.5-8.7-5.5-12.6-9
		c-0.9-0.8-2-1.6-3-0.6c-1,1,0.4,1.7,0.8,2.5c4.9,9.4,11,17.8,18.3,25.4c8.4,8.7,3.5,23.6-8.4,25.7c-9.3,1.7-18.8,2.5-28.3,3.4
		c-8.5,0.9-16.8,2.6-24.4,8c-0.8-15.9,2.1-30.7,6-45.5c4.1-15.3,7.1-30.8,6.5-46.8c-0.1-3.5-0.9-6.9-1.7-10.2
		c-0.9-3.4-2.5-3.9-5.2-1.7c-30.3,24.8-65.3,34.3-104,31.6c-4.7-0.3-8.9,1.1-13.1,2.7c-11.3,4.1-22.6,7.9-34.4,10.4
		c-23.8,5-43.3-13.5-48.8-29.3c-3.6-10.3-3.9-20.6-1.5-30.9c4.3-18.6,8.7-37.2,14.3-55.6c4.8-15.6,13.3-28.8,23.7-41.1
		c1.9-2.3,3.7-4.5,4.2-7.7c4.3-25.3,16.5-46.2,35.4-63.3c4-3.6,6.8-7,7.7-13c1.8-12.3,7.9-23.2,16-32.8
		c14.8-17.5,32.8-30.4,56.2-31.9c10.2-0.7,18.8-3.3,27.1-8.3c7.4-4.4,15.5-7.6,23.2-11.3c8.8-4.2,17.5-8.8,24.6-15.7
		c8.8-8.6,11.2-19.8,11.1-31.6c-0.1-8.1-2.1-15.8-5.8-23c-0.9-1.7-2-3.5-2.3-5.4c-3.4-18.9-13.6-35.6-17.8-54.3
		c-1.8-8.1-2.7-16.4-3.2-24.7c-0.1-2.2,0-2.2,6.2-4.4c-0.1-1.5-1.4-1.8-2.5-2c-4.3-0.8-3.3-3.9-3-6.6c0.4-3.5,3-2.2,5-2.1
		c2.7,0.2,5.5,1.1,8.7-0.1c-2.4-2.8-5.6-3.4-8.4-4.5c-2.4-1-3.6-2.2-2.2-4.8c1.1-2.1,1.1-5.5,5.3-4c3.2,1.1,6.3,3.1,10.3,2.5
		c-1.9-3.3-5-4.8-7.8-6.4c-2.9-1.7-2.8-3.2-1-5.5c0.6-0.8,1.3-1.6,1.8-2.4c2.2-3.9,4.8-5.8,9.1-2.6c0.6,0.5,1.6,0.6,2.4-0.1
		c0.4-1.9-1.1-2.9-2.1-4.2c-1-1.3-1.7-2.3-0.3-3.8c1.7-1.9,2.8,0,3.8,0.6c1.7,1,3,2.5,4.5,3.9c0.8,0.7,1.6,1.3,2.6,0.6
		c1-0.8,0.7-1.7,0-2.6c-0.1-0.1-0.2-0.3-0.3-0.4c-1.3-2.6-5.2-4.9-3.7-7.5c2.1-3.7,6.3-5.8,10.1-7.9c2.2-1.2,3.4,1.5,5,2.5
		c1,0.6,1.9,1.9,3,1.2c1.3-0.9,0.1-2.1-0.2-3.1c-0.5-1.8-3-3.5,0.2-5.4c3-1.8,3.7,0.9,5.1,2.2c2.2,2.1,3.8,4.9,6.9,6.4
		c1.3-3.9-1.8-6-2.7-8.9c-0.5-1.4-3.2-3.4,0-4.3c2.8-0.9,5.6-4.9,8.7-0.9c2.6,3.4,4.7,7.2,7.5,10.6c0.5-4-1.4-7.4-2.3-11
		c-0.5-2-1.5-3.8,1.6-4.6c2.5-0.6,4.8-1.8,6.1,1.8c0.7,2,1.1,4.2,3.9,5.2c0.7-1.7,1.1-3.2,0.3-5c-0.8-1.8-2.1-3.8,1.1-4.6
		c2.4-0.6,4.7-1.7,5.9,2.1c1.2,3.9,3.2,7.5,5.4,12.5c1.3-5.4-0.2-9.1-0.7-12.9c-0.4-2.9,0.3-3.7,2.8-3.7c3.8-0.1,7.7,0,11.5-0.2
		c2.7-0.1,3.7,1,4.1,3.7c0.6,4.5-0.3,9.3,2.3,14.1c1.6-4.9,1.5-9.4,2.1-13.9c0.3-2.1,0.6-3.7,3.6-3.3c2.8,0.4,3.8,1.3,3.4,4.1
		c-0.2,1.5-0.5,3.2,0.5,5.1c2-1.4,2.4-3.4,3-5.2c0.7-2.1,1.8-3.1,4-2.6c2.6,0.7,1.3,2.5,1.1,4c-0.4,2.2-0.7,4.4-1.2,7.3
		c3.3-1.9,4.3-4.5,5.4-6.8c1.3-2.8,2.8-3.9,5.8-2.7c0.8,0.3,1.6,0.3,2.5,0.5c7.1,1.6,7,1.6,4.4,8.2c-0.5,1.3-2.3,3.3-0.4,4.4
		c2.1,1.3,2.5-1.5,3.5-2.6c1.5-1.5,2.7-3.3,4-5c0.9-1.1,2-1.3,3-0.3c1,0.9,0.3,1.8-0.2,2.7c-0.8,1.4-1.9,2.8-1.8,4.6
		c-0.6,0.6-1,1.2-0.1,1.8c0.6,0.4,1-0.2,1.3-0.8c3-0.7,3.2-4.6,7.5-5.7c-2.4,3.7-4.3,6.5-6.1,9.3c-0.6,0.9-1.9,1.8-0.5,2.9
		c1,0.8,1.8-0.2,2.6-0.8c2-1.7,4.4-3.2,6-5.2c2.9-3.7,5.9-3.7,9.3-1.1c3.7,2.9,9.8,3,10.9,9.1c0,0.3,0.4,0.5,0.7,0.7
		c1.4,0.9,4.1-1.7,4.5,1.2c0.2,1.8-2.7,2.2-3.6,3.8c-0.2,0.4-0.2,0.9-0.3,1.4c2.3,1.1,3.9-0.5,5.6-1.2c1.6-0.6,2.7-0.6,4.1,0.5
		c4.2,3.5,4.3,4.7,0,8.3c-4.8,3.9-9.7,7.6-14.4,11.6c-1.8,1.5-3,1.7-5.1,0.2c-32.6-24-68.4-29.9-106.4-16.4
		c-30.1,10.7-50.8,31.1-56.6,64c-0.2,1-1.6,2.3,0.2,2.8c1.6,0.4,1.6-1.4,1.9-2.4c3.1-10.9,8-20.9,15.2-29.6
		c20.2-24.5,46.6-35.2,77.9-34.8c14.3,0.2,28.2,2.7,41.2,9c8.8,4.3,16.9,9.7,21.7,15.7c-18.2-14.9-41.4-20.4-66.7-18.4
		c-25.5,2-47.3,12-64.1,31.7c-11.4,13.4-16.8,29.4-18.1,46.7c-1,13,0.3,25.9,3.6,38.6c3.2,12.3,8.6,23.9,11.9,36.1
		c0.7,2.7,2,5.4,1.3,8.3c-1.6-0.2-1.2-2.7-3.2-2.8c-0.8,4.8-1.7,9.6-2.4,14.4c-0.2,1.5-0.2,3.2,1.3,4c6.7,3.5,8.1,10.4,10.1,16.6
		c1.5,4.6,3.1,6.2,8.3,4.3c10.5-3.7,21.3-6.6,32.5-7.8c4.7-0.5,9.4-0.4,13.8,0.8c2.6,0.7,3.8-0.3,5.5-1.9c2.1-1.9,1-3.5,0.2-5.3
		c-4.2-9.2-8-18.6-12.7-27.6c-3.4-6.4-10.1-8.8-16.8-10.2c-6.5-1.4-12.9-0.8-19,2.1c-1.7,0.8-3.1,1.5-3.2-1.5
		c0-9.8-4.6-18.1-9.3-26.1c-23.4-39.8,1.5-101.9,56.2-107c12.4-1.2,24,0.9,35.7,5.1c5.1,1.9,8.9,5.4,13.8,7.2
		c-12.3-4.5-24.6-8.7-38.3-6.6c1.2,2.3,3.2,2.1,4.9,2.4c13.1,2.4,24.5,8.5,34.8,16.6c4.3,3.4,7.6,8.1,11.1,12.4
		c1.9,2.4,3.5,2.4,6,1.2c3.4-1.7,7-3.2,10.4-4.9c1.8-0.9,2.9-0.9,3.7,1.4c5.1,15.7,10.4,31.3,8.6,48.3c-0.8,7.2-3.6,13.9-4.9,20.9
		c-1.7,9.7-1.5,19.6-1.4,29.4c0.1,6.6,0,13.3,0,20.9c-5.2-12.4-7.8-24.6-9.5-37.2c-2.6,10.8-3.2,21.7-4.1,32.6
		c-1.6,19.5-1,39,0.3,58.4c0.2,3.6-0.7,4.5-4.3,4.4c-21-0.7-37.7-9.7-50.9-25.8c-1.3-1.6-2.4-5-5.1-2.9c-2.5,2-5.9,4.3-4.3,8.6
		c0.6,1.6,1.3,3.1,1.6,4.7c1,5,3,8.3,9,7.9c3.5-0.2,6.1,2.5,6.9,6.2c0.8,3.9,3.2,5.6,6.9,6.8c11.3,3.5,22.8,6.7,32.6,13.6
		c4.4,3.1,8.8,4.5,14.1,5.3c21.4,3.2,37.3,14.7,47.2,33.8c5.9,11.4,8,23.8,5,36.6c-0.6,2.6-0.2,4.7,1.2,7c14.7,24.1,20,50.2,15.8,78
		c-1.1,6.9,2.7,12.1,5.4,17.5c6.8,13.8,11,28.4,14.5,43.3c4.1,17.8,5.6,35.9,5.8,54.1c0.1,8.5,0.6,17,1.8,26.5
		c-4.1-4.6-6-9.2-7.7-14c-4.5-13-5.2-26.8-6.8-40.3c-2.8-24.5-7.9-48.6-15.7-72.1c-2.3,0-1.6,2.9-4,3c-3.2-29.7-1-60.3-14.6-88.5
		c-2.9,1.6-3.4,5.2-6.5,6.8c2.7-11.3,3.9-22.3,2.1-33.5c-4.7-29.7-25.7-49.2-55.6-51.5c-3.3-0.3-6.7,0-10-0.3
		c-4.1-0.3-5.4,0.8-3.6,5.1c2.3,5.2,4.1,10.6,5.8,15.9c3,9.1,1,15.7-6.3,21.9c-12,10.1-26.3,16.3-40.5,22.5
		c-4.3,1.9-8.6,3.5-12.9,5.4c-1.2,0.5-3.6,0.2-3,2.4c0.4,1.7,1.8,3.3,4,3c6.2-0.8,11.8,1.9,17.6,3.1c7.4,1.5,10.7,6.1,11.2,13.8
		c0.1,1,0,2.2,0.5,2.9c4.5,6.1,5.4,13.8,8.8,20.4c1.1,2.1,2,4.3,1.7,6.6c-1.2,10.1-2.4,20.3-11.6,27c-1.6,1.1-2.5,2.3-1.6,4.6
		c1.2,3.3,2.2,4.9,6.3,3.5c9-3,18.2-5.4,27.3-8.1c1.5-0.5,3.4-0.5,4-2.5C957.9,567.4,963.5,558.8,965.9,549c-0.1-0.3-0.1-0.5,0-0.7
		c-0.1,0-0.2,0.1-0.3,0.1C965.6,548.6,965.8,548.8,965.9,549z M848.6,232.4c12-13.7,27.1-21,45.3-21.8c16.5-0.7,30.9,4.8,44.3,14.6
		c-5.3,4.4-11.1,7.2-16.6,10.6c-1.2,0.7-3.3,1.3-2.6,3.1c0.9,2.2,2.9,0.8,4.3,0.2c7.8-3,15.5-6,23.2-9.1c1.5-0.6,3.3-0.9,3.3-3.2
		c0-2-1.3-2.9-2.6-4c-0.7-0.6-1.8-0.9-2.5-1.6c-14.9-14.4-33.1-20.2-53.4-19.6c-20.6,0.6-34.3,12.2-44.9,28.6
		c-1.9,1.1-2.8,2.9-1,4.3C847.3,236,848.1,234,848.6,232.4z M800.3,599.3c0.2,0.3,0.5,0.6,0.7,0.8c-1.4,4.3-4.1,8.3-4,13.5
		c1.1-0.3,1.8-0.4,2.5-0.7c14-5.5,27.4-12.2,39.6-21.1c5.7-4.2,11.8-6,18.6-5.9c6.5,0.1,13,0.3,19.5,0.5c2.4,0.1,4.6-0.1,6.9-0.9
		c9.3-3.6,18.3-7.9,27.1-12.8c7.2-4,8.8-7.4,6.8-15.5c-1.4-5.6-3.6-11.1-4.1-16.9c-0.6-6.9-3.2-12.7-8.1-17.7
		c-3.6-3.6-8.1-5.2-12.7-6.6c-3-0.9-4.6,2.1-6.8,3.5c-6.6,4.1-13.6,7-21.2,8.5c-1.8,0.4-3.8,1-4.1-1.9c-0.5-4-2.2-2.9-4-1
		c-4.6,4.9-7.9,10.7-10.3,17c-3.7,9.8-8.7,19.1-17.9,24.5c-5.8,3.4-12.7,4.8-19.1,7.2c-24.5,9.2-50.2,12.5-75.9,15.6
		c-9.6,1.2-19.2,2.7-28.9,3.7c-18,2-35.7,6.1-53.3,10.9c-15.8,4.3-31.2,9.5-43.4,21.3c-0.8,0.7-1.6,1.8-3.3,1.4
		c-1.2-12.2,1.7-23.9,9.9-32.7c5.9-6.3,10.1-13,12.7-20.9c2.3-6.9,4.4-13.9,6.4-21c3.5-12.3,6.1-24.9,11.5-36.6
		c2.5-5.4,5.3-10.6,9.9-15.1c3.4,9.8,7.6,18.6,12.5,26.8c5.1,8.5,8.7,17.5,11.1,27.4c10.3-15.6,14.4-49.3,7.7-65
		c-2.1,9.3-4,17.9-6,26.5c-2.8-13.3-3.4-26.6-2.1-39.9c1-10.7,1.8-21.8,8.2-30.5c17.4-23.9,38.8-40.5,70.9-34.8
		c4.5,0.8,9-3.2,9.3-7.8c0.2-2.5-0.5-4.1-3.2-4.8c-9.6-2.3-19.3-3.9-29.2-2.1c-26.6,4.7-44.8,20.7-57.8,43.4
		c-2.8,4.8-5.7,9.7-6.7,15.2c-3.6,18.9-2.4,37.8,0.7,57.8c-7.5-12.5-10.7-25.2-12.4-39.6c-24.3,25.3-32.1,56.9-40.6,89.3
		c-1.3-4.8-1.7-8.5-1.8-12.2c0-0.8,0-1.8-1.1-1.9c-0.7-0.1-1.2,0.2-1.6,0.9c-5.2,10.2-11.6,19.8-15.1,30.8
		c-6.5,20.2-9.4,41.2-13.8,61.8c-1,4.6-0.8,9.5,1,14.3c4.7,13,21.4,18.7,37.2,15.7c-10.9-3.1-19.2-8.4-25.4-18.5
		c20.7,5.8,40.6,9.2,61,9c26.5-0.2,52.8-8.1,58.2-14c-14.7,0.1-29.3,0.6-43.7-3.5c1.2-1.8,2.8-1.6,4.2-1.9
		c30.3-5.3,59.5-14.5,87.8-26.3C776.6,611.4,788.3,605,800.3,599.3z M721.7,485.2c-0.1,1.4,0.7,1.8,1.4,2.3
		c16.9,12.4,28.2,28.9,36.5,47.9c3.1,7.2,6.6,14.2,11.8,20.2c5,5.8,11,11.6,18.3,12.2c8.3,0.6,16.4-3.5,24.6-7.2
		c-22.8-2.4-35.3-20.3-52.5-32.8c6.7,0.8,11.9,3.2,16.5,6.3c14.1,9.5,29.5,15.1,46.4,17.1c9.8,1.2,10.1,1.7,12.4-8.1
		c2.4-10.3,6.4-19.6,13.7-27.2c0.1-0.1,0-0.4-0.1-0.9c-0.7,0.2-1.3,0.3-1.9,0.5c-16.3,5.2-32.5,10.6-49.5,12.5
		c-8.1,0.9-16.7,1.2-22.9-5.6c-10.5-11.6-21.9-22-35.4-29.8C734.9,489.2,728.6,486.3,721.7,485.2z M935.8,458.9
		c6.6-0.4,7-0.9,4.9-6.9c-2.5-6.9-5.2-13.7-7.5-20.7c-1-3.2-2.8-4.2-5.9-3.9c-7.6,0.8-15.2,1.8-22.6,3.7
		c-35.6,9.1-70.1,21.3-103.4,36.9c-8.9,4.2-17.6,9.1-25.7,14.9c-3.4,2.4-4.8,4.8-2.8,9.1c3.1,6.9,5.6,14.1,8.4,21.1
		c0.4,1.1,1.2,3,1.9,2.7c2.4-1,4.6-2.5,6.7-4c1.7-1.2,1-2.9,0.5-4.5c-1.9-5.5-3.6-11-6-16.3c-1.7-3.7-0.9-5.4,2.6-7.3
		c28.7-15.9,59.2-27.2,90.3-37.3c2.6-0.9,3.6,0,4.4,2.3c1.4,4.1,3,8.1,4.5,12.2c3.2,8.9,3.1,8.7,12.2,6.1c3.5-1,3.6-2.5,2.4-5.3
		c-2.1-5.2-4-10.6-5.9-15.9c-0.6-1.8-2.8-4.2,1.1-5c2.6-0.5,5.3-2.3,6.6,2.3c1.7,6.1,4.3,11.9,6.3,17.9c1.3,3.9,3.7,2.2,6,1.7
		c2.7-0.6,2.2-2.3,1.5-4.2c-1.5-3.9-2.8-7.8-4.2-11.7c-3.5-9.5-3.4-9.3,6.7-11.1c3.3-0.6,4.8,0.2,5.8,3.3c1.7,5.4,4,10.6,5.7,16
		C931.2,458,932.6,459.9,935.8,458.9z M992.9,613.7c6.6,0,6.8-0.1,4.6-6.3c-2.4-7.1-5.3-14-7.6-21.1c-1-2.9-2.6-3.4-5.2-3.3
		c-9.7,0.4-19.2,2.2-28.5,4.7c-29.5,7.8-58.3,17.8-86.2,30.1c-13.3,5.8-26.3,12.1-38.1,20.8c-2.7,2-3.1,3.8-2.2,7.1
		c2,7.1,5.5,13.7,7.9,20.6c0.6,1.7,0.5,4.9,3.8,3.9c4.4-1.4,6.8-5,5.6-8.2c-2-5.6-3.9-11.3-6.3-16.8c-1.4-3.2-0.5-4.7,2.3-6.3
		c6.8-3.9,13.8-7.4,20.9-10.8c22.5-10.6,45.7-19.2,69.4-26.8c3.2-1,4.5-0.3,5.4,2.7c1.3,4.1,2.9,8.1,4.4,12.2
		c3.2,8.4,3.2,8.3,11.8,5.5c2.9-1,3.7-2.1,2.5-5c-2.1-5.2-4-10.6-5.9-15.9c-0.7-1.9-2.8-4.2,1.2-5.4c3.3-1,5.5-1.2,6.7,2.9
		c1.8,6,4.3,11.9,6.4,17.9c1.3,3.7,3.9,1.4,5.8,1.2c2.5-0.3,2-2,1.4-3.8c-1.5-3.9-2.9-7.8-4.3-11.7c-3.6-10.1-3.6-10,7.1-11.8
		c3.1-0.5,4.5,0.3,5.4,3.4c1.7,5.4,3.9,10.6,5.7,16C987.9,612.7,989.3,614.9,992.9,613.7z M993.4,651.5c5.2-0.1,5.7-0.7,4-5.6
		c-1.9-5.3-4.1-10.6-5.8-15.9c-1.1-3.4-3.1-4.4-6.3-3.8c-5.7,1-11.5,1.8-17.2,3.1c-27.6,6.2-53.9,16.1-79.7,27.4
		c-9.9,4.3-19.6,9.3-28.6,15.4c-1.9,1.3-4.8,2.4-3.8,5.7c1.8,5.8,3.5,11.6,5.6,17.2c2.3,6,2.6,5.8,7.7,2.2c2-1.4,1.5-2.5,0.9-4.1
		c-1.6-4.4-2.8-8.9-4.7-13.1c-1.8-3.8-0.9-5.7,2.8-7.7c20.6-11.1,42.2-19.9,64.3-27.4c4.7-1.6,10-5.5,14-3.5
		c3.7,1.9,3.9,8.4,5.5,12.9c2.5,6.6,2.4,6.5,9.4,4.7c3.1-0.8,3.7-2,2.5-4.9c-1.8-4.3-3.2-8.8-4.8-13.1c-0.8-2.2-1.5-3.8,1.7-4.8
		c2.9-0.9,4.3-0.3,5.1,2.6c0.8,2.9,1.9,5.7,3.1,8.4c1,2.3,1.4,5.8,5.2,4.4c3.7-1.3,1.5-4.1,0.9-6.3c-0.6-2.2-1.3-4.5-2.4-6.6
		c-2.5-4.5-0.3-5.8,3.8-6.1c0.8-0.1,1.7-0.2,2.5-0.4c3.2-1.1,4.8,0,5.8,3.3c1.4,4.6,3.3,9.1,4.9,13.6
		C990.3,651,991.3,652.1,993.4,651.5z M896.4,264.5c3.2,3.4,7.3,4.1,11.2,5c4.2,1,6.7,3.1,8.5,7.2c5.5,12.6,14.2,22.6,27.4,27.6
		c3.7,1.4,4.1,3.2,3.6,6.7c-3.2,20.7-6.7,41.5-5.6,62.6c0.2,3.5-0.5,4.4-4,2.9c-11.9-4.9-22-12.4-30.9-21.6c-1.1-1.1-2.2-3.2-4-1.9
		c-1.9,1.4-0.3,3.2,0.6,4.4c11.4,14.8,24.6,27,43.7,30.9c5.9,1.2,6,1.1,5.6-4.7c-1.9-27-1.4-53.9,3-80.7c0.7-4.2-0.1-5.7-4.5-6.5
		c-16-2.8-28.7-9.9-32-27.6c-0.2-1.2-0.6-2.2-2-2.5C910.2,264.7,903.2,266.1,896.4,264.5z M902.9,398.8c-4.4,0.7-8.9,1.3-13.3,2.2
		c-25.5,5.3-49.9,14.4-74,24c-13.7,5.4-26.8,11.9-39.1,19.8c-3.5,2.3-5.2,4.7-3,8.9c1.7,3.4,3.1,7.1,3.9,10.8c1.2,4.8,3.1,5.1,7,2.5
		c2.1-1.4,2.1-2.5,1.3-4.4c-1.3-3.4-2.5-6.8-3.8-10.1c-1.2-3-0.9-4.9,2.4-6.7c24.2-13.3,49.9-22.9,76-31.4c2.5-0.8,3.6-0.3,4.4,2.1
		c1.3,4,2.9,7.8,4.2,11.7c0.9,2.7,2.3,3.3,4.8,2.3c1.2-0.5,2.5-1,3.8-1.3c2.7-0.5,3.6-1.7,2.4-4.5c-1.5-3.5-2.8-7.1-3.9-10.8
		c-0.5-1.5-2.7-3.6,1-4.6c2.9-0.8,4.6-0.7,5.6,2.6c1,3.7,2.8,7.1,3.8,10.8c0.9,3,2.4,3.4,5.2,2.4c3.2-1.1,1.9-2.8,1.3-4.7
		c-1-2.7-1.9-5.3-2.9-8c-2.1-5.8-2.1-5.4,4-7.1c4.5-1.2,6.8-0.2,7.9,4.3c0.8,3.4,2.3,6.6,3.6,9.8c1.7,4,4.6,1,6.9,0.9
		c2.6-0.2,1.7-2.3,1.2-3.8c-1.7-4.9-3.7-9.6-5.2-14.5C907.3,399.5,905.6,398.7,902.9,398.8z M689.7,587.5c2.8,0,4.3,0.3,5.6,0
		c16.9-4.7,34-8,51.3-10.6c3.7-0.5,4.8-1.4,3.4-5.3c-3.3-9.6-5.7-19.4-7.8-29.3c-1.2-5.6-2.4-11.2-3.8-17.7
		C731.5,553,713.7,572,689.7,587.5z M999.6,683.4c-0.8-2.1-1.8-5-2.8-7.8c-4.1-11.2-4.1-11.4-15.7-8.9c-35.5,7.8-69.4,20-100.8,38.6
		c-2.1,1.2-3,2.5-1.5,5.2c2.3,4.3,3.8,9,5.8,13.5c0.6,1.4,0.5,4.2,3.4,2.8c2.3-1.1,3.8-2.6,2.5-5.5c-1.3-2.9-2-6-3.5-8.8
		c-2.1-4.1-1.3-6.4,2.8-8.6c20.3-11,41.9-18.9,63.7-26.2c2.7-0.9,3.6,0.2,4.3,2.4c1.4,4.1,2.7,8.3,4.5,12.2c2,4.3,4.8,0.3,7.2,0.2
		c2.2-0.1,2.5-1.6,1.7-3.6c-1.5-3.9-2.8-7.8-4.3-11.7c-0.8-2-0.9-3.4,1.7-4.1c2.3-0.6,3.4-0.1,4.1,2.1c1.4,4.1,3,8.1,4.4,12.2
		c0.7,2.2,1.8,2.8,4.1,2.1c2.6-0.7,1.8-2.3,1.3-3.9c-1.2-3.3-2.6-6.5-3.6-9.9c-0.5-1.7-3.1-3.9,0.6-5.3c4.9-1.9,8.2-1.2,9.5,2.2
		c1.5,3.9,3,7.8,4.3,11.7c0.8,2.3,2.4,2.4,4.3,2.1C999,686.5,999.9,685.8,999.6,683.4z M720.4,497.3c8,10.3,4.7,19.2,0.3,28.1
		c-4.4,8.9-10.4,16.6-16.7,24.2c-11.3,13.6-23.7,26.4-30.9,43.3c2.6,0.6,4.3-0.5,6-2.1c23.9-21.2,43.1-45.5,52.8-76.6
		C734.3,506.5,731.3,501.8,720.4,497.3z M792.5,668c-0.1,2-0.3,4-0.4,6c-1.2,19.1-7.4,37.1-13.5,55c-0.3,1-1.9,2.1-0.2,2.9
		c1.3,0.6,1.9-0.7,2.6-1.7c13.9-21.8,24.7-44.5,20.7-71.5c-1.1-7.4-2.6-14.7-5.7-21.6c-0.4-0.9-0.3-2.5-2.2-1.9
		c-3.3,0.9-6.1,6.2-5.2,9.7C790.5,652.4,792.6,660,792.5,668z M888.1,388.6c3.6,0,4-0.5,2.9-3.8c-1.2-3.5-2.7-6.8-3.7-10.3
		c-1-3.3-2.9-3.9-6-3.5c-11.8,1.4-23.2,4.5-34.5,8c-12.5,3.9-24.7,8.9-36.9,13.9c-10.4,4.2-20.5,8.7-30.3,14.1
		c-9.3,5.1-9.1,5.4-5.6,15.2c0.5,1.4,0.8,2.9,1.6,4.2c0.6,1,0.2,3.7,2.5,2.5c1.7-0.9,4.4-1.5,3.8-4.5c-0.3-1.3-0.8-2.5-1.3-3.8
		c-3.2-8.6-3-8.2,4.9-12.6c16.4-9.1,33.8-15.6,51.5-21.4c3.6-1.2,7.6-3.8,10.8-3c3.7,0.8,3.2,6.3,4.8,9.6c0.9,1.9,1.7,2.8,4.1,2.3
		c6.5-1.3,6.8-1.7,4.5-8.1c-0.5-1.2-1.1-2.5-1.4-3.7c-0.4-1.5-2.3-3.3,0.8-4.3c2.8-0.9,3.9,0.1,4.7,2.7c0.8,2.7,2,5.3,2.9,8
		c0.8,2.4,2.5,1.5,4.1,1.2c2.2-0.4,2.1-1.7,1.4-3.3c-0.6-1.5-1.1-3.1-1.7-4.7c-2.4-6.3-2.3-6.1,4.2-7.6c3-0.7,4.3,0.2,5.1,2.9
		c0.7,2.5,1.9,5,2.7,7.5C884.9,388.1,886.3,388.9,888.1,388.6z M753.7,390.1c7.7,2.9,14.5,5.5,21.3,8.1c1.7,0.6,2.9-0.4,4.1-1.1
		c7.1-4,14.5-7.3,21.9-10.7c1.8-0.8,5.2-0.6,4.7-3.5c-0.7-4-2.1-8-4.4-11.5c-0.5-0.7-1.5,0.2-2.1,0.6c-9.5,5.4-20,8.5-30.2,12.2
		C764.2,385.9,759.1,386.8,753.7,390.1z M961.3,288.4c3.7,0.7,4.3-0.7,3.3-3.5c-2.4-6.4-6.9-10.4-13.2-12.6
		c-8.1-2.8-16.4-3.8-24.8-5c-3.2-0.4-3.5,0.6-2.4,3.2c3.2,7.3,8.5,12.2,16.1,14.5C947.2,287.2,954.4,288.3,961.3,288.4z M969.8,275
		c0.5-0.5,0.8-0.7,0.8-1c3.7-13.9,0.6-27.3-3-40.7c-0.7-2.7-2.7-1.7-4.4-1.1c-9.5,3.5-19,7.1-28.7,9.8c-1.4,0.4-4,0.5-3.4,2.7
		c0.6,2.1,2.8,1,4.3,0.6c7.4-1.8,14.9-3.4,22.2-5.5c3.7-1.1,5.6-1.2,6.4,3.4c1.2,7.3,2.1,14.5,1.4,21.8
		C965,269.5,967,272.3,969.8,275z M870,517.6c-2.5-6.9-5-14-7.7-21.1c-0.7-1.7-2.2-0.9-3.5-0.5c-1.2,0.4-2.7,0.9-2.3,2.7
		c1.6,7.2,5.2,13.7,7.6,20.6c0.6,1.7,2,1.4,3.4,0.9C868.6,519.8,870.2,519.8,870,517.6z M947.5,714.1c1.1-1.7,1.2-2.6,0.1-2.8
		c-2-0.2-3.9,0.7-5.5,1.8c-1,0.6-0.6,1.4-0.2,2.4c2.7,6.4,5.1,12.8,7.6,19.3c0.4,1.1-0.4,3.1,1.6,3c2.1-0.1,4.2-0.9,6-2.2
		c0.5-0.4,0.1-1.2-0.4-1.7C950.3,728.5,950.3,720.4,947.5,714.1z M823.4,375.6c-0.1-0.3-0.2-0.5-0.2-0.6c-1.5-5.7-4.9-10.8-5.3-16.9
		c-0.1-1.4-2.2-1.3-2.8-0.4c-0.9,1.5-4.8,0.1-3.4,3c2.6,5.4,4.2,11.2,6.5,16.6c0.5,1.2,1.3,1.9,2.7,1.3
		C822.2,378,823.6,377.4,823.4,375.6z M841.1,241.1c-0.3,1.8,0.6,1.8,1,2.2c0.4-0.5,0.8-1,1.1-1.5c0.4-0.8-0.3-1.3-0.8-1.3
		C841.5,240.5,841.1,241.2,841.1,241.1z M844.5,238.6c0.2-0.7-0.7-0.7-1.1-1.1c-0.4,0.5-0.9,0.9-1.1,1.4c-0.4,0.8,0.1,1.3,0.8,1.4
		C844,240.3,844.3,239.6,844.5,238.6z M902.4,352c-0.2,0.1-0.4,0.2-0.6,0.4c0.1,0.1,0.2,0.3,0.3,0.3c0.2-0.1,0.4-0.2,0.7-0.3
		C902.6,352.3,902.5,352.2,902.4,352z M976.6,163.3c-0.1-0.1-0.2-0.2-0.3-0.3c-0.1,0.2-0.3,0.4-0.3,0.6c0,0.1,0.2,0.2,0.3,0.3
		C976.4,163.7,976.5,163.5,976.6,163.3z"/>
	<linearGradient id="SVGID_2_" gradientUnits="userSpaceOnUse" x1="1010.2713" y1="354.9527" x2="1211.2017" y2="319.5233">
		<stop  offset="0" style="stop-color:#CDC228"/>
		<stop  offset="1.385960e-002" style="stop-color:#CCB529"/>
		<stop  offset="4.473797e-002" style="stop-color:#C99B2B"/>
		<stop  offset="7.943475e-002" style="stop-color:#C8842C"/>
		<stop  offset="0.1172" style="stop-color:#C6702B"/>
		<stop  offset="0.159" style="stop-color:#C55E2B"/>
		<stop  offset="0.2061" style="stop-color:#C44D2B"/>
		<stop  offset="0.2611" style="stop-color:#C43E2B"/>
		<stop  offset="0.3292" style="stop-color:#C3322A"/>
		<stop  offset="0.4247" style="stop-color:#C32A2A"/>
		<stop  offset="0.6897" style="stop-color:#C3282A"/>
		<stop  offset="0.745" style="stop-color:#C02729"/>
		<stop  offset="0.7972" style="stop-color:#B92527"/>
		<stop  offset="0.8482" style="stop-color:#AD2223"/>
		<stop  offset="0.8984" style="stop-color:#9C1D1D"/>
		<stop  offset="0.948" style="stop-color:#851413"/>
		<stop  offset="0.9965" style="stop-color:#6C0603"/>
		<stop  offset="1" style="stop-color:#6A0502"/>
	</linearGradient>
	<path fill="url(#SVGID_2_)" d="M1036.1,478c-1.7-10.1-4.3-19.4-9-28.1c-1.1-2.1,0.6-3.5,1.5-4.9c10.9-16.9,21.8-33.7,32.8-50.6
		c28.3-43.6,56.7-87.3,85.1-130.9c1.5-2.3,1.9-5.2,4.3-7.1c1.5-1.3,0.7-2.8-1.4-2.9c-1.5-0.1-3-0.1-4.5-0.1c-48,0-96,0-144,0.1
		c-3.9,0-6.4-0.2-6.4-5.4c0-4.6-1.4-9.2-2.9-13.6c-1.3-3.8,0.3-4.1,3.4-4.1c22.7,0.1,45.3,0,68,0c42.5,0,85,0,127.5,0
		c1.3,0,2.6,0,4.9,0C1142.1,313.4,1089.1,395.7,1036.1,478z"/>
	<linearGradient id="SVGID_3_" gradientUnits="userSpaceOnUse" x1="558.8669" y1="331.3184" x2="775.2435" y2="293.1654">
		<stop  offset="0" style="stop-color:#CDC228"/>
		<stop  offset="1.385960e-002" style="stop-color:#CCB529"/>
		<stop  offset="4.473797e-002" style="stop-color:#C99B2B"/>
		<stop  offset="7.943475e-002" style="stop-color:#C8842C"/>
		<stop  offset="0.1172" style="stop-color:#C6702B"/>
		<stop  offset="0.159" style="stop-color:#C55E2B"/>
		<stop  offset="0.2061" style="stop-color:#C44D2B"/>
		<stop  offset="0.2611" style="stop-color:#C43E2B"/>
		<stop  offset="0.3292" style="stop-color:#C3322A"/>
		<stop  offset="0.4247" style="stop-color:#C32A2A"/>
		<stop  offset="0.6897" style="stop-color:#C3282A"/>
		<stop  offset="0.745" style="stop-color:#C02729"/>
		<stop  offset="0.7972" style="stop-color:#B92527"/>
		<stop  offset="0.8482" style="stop-color:#AD2223"/>
		<stop  offset="0.8984" style="stop-color:#9C1D1D"/>
		<stop  offset="0.948" style="stop-color:#851413"/>
		<stop  offset="0.9965" style="stop-color:#6C0603"/>
		<stop  offset="1" style="stop-color:#6A0502"/>
	</linearGradient>
	<path fill="url(#SVGID_3_)" d="M541.1,230.3c25.3,0,49.8,0,74.2,0c47.5,0,95,0.1,142.5-0.1c3.8,0,5.5,0.7,5.9,5
		c0.5,4.7,2,9.4,3.6,14c1.2,3.3,0.6,4.2-3,4.2c-20.2-0.2-40.3-0.1-60.5-0.1c-38,0-76,0-114,0c-1.7,0-4-0.9-4.9,1.1
		c-0.7,1.6,1.1,3,1.9,4.3c12.3,19,24.6,38,37,57c17.2,26.5,34.4,53,51.7,79.4c2.2,3.4,2.8,5.6-0.9,8.7c-4.1,3.4-7.4,7.6-10.7,11.8
		c-1.9,2.4-2.7,2.1-4.2-0.3c-9.1-14.3-18.5-28.4-27.6-42.7c-15-23.3-29.9-46.6-44.8-69.9c-15-23.3-29.9-46.7-44.9-70
		C542,232.3,541.8,231.7,541.1,230.3z"/>
	<linearGradient id="SVGID_4_" gradientUnits="userSpaceOnUse" x1="776.9601" y1="235.5883" x2="1016.9079" y2="193.279">
		<stop  offset="0" style="stop-color:#CDC228"/>
		<stop  offset="1.385960e-002" style="stop-color:#CCB529"/>
		<stop  offset="4.473797e-002" style="stop-color:#C99B2B"/>
		<stop  offset="7.943475e-002" style="stop-color:#C8842C"/>
		<stop  offset="0.1172" style="stop-color:#C6702B"/>
		<stop  offset="0.159" style="stop-color:#C55E2B"/>
		<stop  offset="0.2061" style="stop-color:#C44D2B"/>
		<stop  offset="0.2611" style="stop-color:#C43E2B"/>
		<stop  offset="0.3292" style="stop-color:#C3322A"/>
		<stop  offset="0.4247" style="stop-color:#C32A2A"/>
		<stop  offset="0.6897" style="stop-color:#C3282A"/>
		<stop  offset="0.745" style="stop-color:#C02729"/>
		<stop  offset="0.7972" style="stop-color:#B92527"/>
		<stop  offset="0.8482" style="stop-color:#AD2223"/>
		<stop  offset="0.8984" style="stop-color:#9C1D1D"/>
		<stop  offset="0.948" style="stop-color:#851413"/>
		<stop  offset="0.9965" style="stop-color:#6C0603"/>
		<stop  offset="1" style="stop-color:#6A0502"/>
	</linearGradient>
	<path fill="url(#SVGID_4_)" d="M796.6,336.7c6.6-21.9,3.2-43-5.7-63.5c-5.5-12.7-11.4-25.2-14.1-38.8c-7.8-39,8.9-78.8,42.3-100.4
		c27.1-17.5,57.1-23,88.8-21.2c21.4,1.2,41.9,6.1,61,15.6c17.4,8.7,31.7,21.2,42.7,37.4c1.8,2.7-0.4,3.1-1.8,3.9
		c-8,4.8-16.1,9.4-24,14.2c-4.3,2.6-8.2,5.9-11.5,9c6.9-9.2,16.2-16.3,25.8-23.1c3.7-2.6,3.8-4.4,0.7-7.7c-9-9.6-19.5-17.4-31.2-23
		c-34.7-16.4-71-21.5-108.7-12.6c-25.4,6-47.3,17.9-62.7,39.7c-12,17.1-16.7,36.4-16.1,57.2c0.5,15.9,6,30.4,11.8,44.8
		c7.5,18.3,10.2,37.1,6.6,56.7c-0.7,4.1-2.5,7.8-3.9,11.6C796.6,336.6,796.6,336.7,796.6,336.7z"/>
	<linearGradient id="SVGID_5_" gradientUnits="userSpaceOnUse" x1="795.2252" y1="339.4718" x2="795.9088" y2="339.3513">
		<stop  offset="0" style="stop-color:#CDC228"/>
		<stop  offset="1.385960e-002" style="stop-color:#CCB529"/>
		<stop  offset="4.473797e-002" style="stop-color:#C99B2B"/>
		<stop  offset="7.943475e-002" style="stop-color:#C8842C"/>
		<stop  offset="0.1172" style="stop-color:#C6702B"/>
		<stop  offset="0.159" style="stop-color:#C55E2B"/>
		<stop  offset="0.2061" style="stop-color:#C44D2B"/>
		<stop  offset="0.2611" style="stop-color:#C43E2B"/>
		<stop  offset="0.3292" style="stop-color:#C3322A"/>
		<stop  offset="0.4247" style="stop-color:#C32A2A"/>
		<stop  offset="0.6897" style="stop-color:#C3282A"/>
		<stop  offset="0.745" style="stop-color:#C02729"/>
		<stop  offset="0.7972" style="stop-color:#B92527"/>
		<stop  offset="0.8482" style="stop-color:#AD2223"/>
		<stop  offset="0.8984" style="stop-color:#9C1D1D"/>
		<stop  offset="0.948" style="stop-color:#851413"/>
		<stop  offset="0.9965" style="stop-color:#6C0603"/>
		<stop  offset="1" style="stop-color:#6A0502"/>
	</linearGradient>
	<path fill="url(#SVGID_5_)" d="M795.9,339.1c-0.2,0.1-0.4,0.2-0.6,0.3c0,0,0.1,0.2,0.1,0.4C795.5,339.5,795.6,339.3,795.9,339.1
		L795.9,339.1z"/>
	<linearGradient id="SVGID_6_" gradientUnits="userSpaceOnUse" x1="795.4203" y1="338.0141" x2="796.9129" y2="337.7509">
		<stop  offset="0" style="stop-color:#CDC228"/>
		<stop  offset="1.385960e-002" style="stop-color:#CCB529"/>
		<stop  offset="4.473797e-002" style="stop-color:#C99B2B"/>
		<stop  offset="7.943475e-002" style="stop-color:#C8842C"/>
		<stop  offset="0.1172" style="stop-color:#C6702B"/>
		<stop  offset="0.159" style="stop-color:#C55E2B"/>
		<stop  offset="0.2061" style="stop-color:#C44D2B"/>
		<stop  offset="0.2611" style="stop-color:#C43E2B"/>
		<stop  offset="0.3292" style="stop-color:#C3322A"/>
		<stop  offset="0.4247" style="stop-color:#C32A2A"/>
		<stop  offset="0.6897" style="stop-color:#C3282A"/>
		<stop  offset="0.745" style="stop-color:#C02729"/>
		<stop  offset="0.7972" style="stop-color:#B92527"/>
		<stop  offset="0.8482" style="stop-color:#AD2223"/>
		<stop  offset="0.8984" style="stop-color:#9C1D1D"/>
		<stop  offset="0.948" style="stop-color:#851413"/>
		<stop  offset="0.9965" style="stop-color:#6C0603"/>
		<stop  offset="1" style="stop-color:#6A0502"/>
	</linearGradient>
	<path fill="url(#SVGID_6_)" d="M795.8,339.1c1.2-0.5,1.3-1.4,0.8-2.4c0,0,0-0.1,0-0.1C796.2,337.4,794.8,337.9,795.8,339.1
		C795.9,339.1,795.8,339.1,795.8,339.1z"/>
	<linearGradient id="SVGID_7_" gradientUnits="userSpaceOnUse" x1="844.4961" y1="233.028" x2="848.5961" y2="232.305">
		<stop  offset="0" style="stop-color:#CDC228"/>
		<stop  offset="1.385960e-002" style="stop-color:#CCB529"/>
		<stop  offset="4.473797e-002" style="stop-color:#C99B2B"/>
		<stop  offset="7.943475e-002" style="stop-color:#C8842C"/>
		<stop  offset="0.1172" style="stop-color:#C6702B"/>
		<stop  offset="0.159" style="stop-color:#C55E2B"/>
		<stop  offset="0.2061" style="stop-color:#C44D2B"/>
		<stop  offset="0.2611" style="stop-color:#C43E2B"/>
		<stop  offset="0.3292" style="stop-color:#C3322A"/>
		<stop  offset="0.4247" style="stop-color:#C32A2A"/>
		<stop  offset="0.6897" style="stop-color:#C3282A"/>
		<stop  offset="0.745" style="stop-color:#C02729"/>
		<stop  offset="0.7972" style="stop-color:#B92527"/>
		<stop  offset="0.8482" style="stop-color:#AD2223"/>
		<stop  offset="0.8984" style="stop-color:#9C1D1D"/>
		<stop  offset="0.948" style="stop-color:#851413"/>
		<stop  offset="0.9965" style="stop-color:#6C0603"/>
		<stop  offset="1" style="stop-color:#6A0502"/>
	</linearGradient>
	<path fill="url(#SVGID_7_)" d="M848.6,232.4c-0.5,1.6-1.3,3.6-3.2,2.2c-1.8-1.4-0.8-3.2,1-4.3C847.2,231,847.9,231.7,848.6,232.4z"
		/>
	<linearGradient id="SVGID_8_" gradientUnits="userSpaceOnUse" x1="841.0737" y1="242.1091" x2="843.3888" y2="241.7008">
		<stop  offset="0" style="stop-color:#CDC228"/>
		<stop  offset="1.385960e-002" style="stop-color:#CCB529"/>
		<stop  offset="4.473797e-002" style="stop-color:#C99B2B"/>
		<stop  offset="7.943475e-002" style="stop-color:#C8842C"/>
		<stop  offset="0.1172" style="stop-color:#C6702B"/>
		<stop  offset="0.159" style="stop-color:#C55E2B"/>
		<stop  offset="0.2061" style="stop-color:#C44D2B"/>
		<stop  offset="0.2611" style="stop-color:#C43E2B"/>
		<stop  offset="0.3292" style="stop-color:#C3322A"/>
		<stop  offset="0.4247" style="stop-color:#C32A2A"/>
		<stop  offset="0.6897" style="stop-color:#C3282A"/>
		<stop  offset="0.745" style="stop-color:#C02729"/>
		<stop  offset="0.7972" style="stop-color:#B92527"/>
		<stop  offset="0.8482" style="stop-color:#AD2223"/>
		<stop  offset="0.8984" style="stop-color:#9C1D1D"/>
		<stop  offset="0.948" style="stop-color:#851413"/>
		<stop  offset="0.9965" style="stop-color:#6C0603"/>
		<stop  offset="1" style="stop-color:#6A0502"/>
	</linearGradient>
	<path fill="url(#SVGID_8_)" d="M841.1,241.1c0,0.1,0.4-0.6,1.3-0.6c0.6,0,1.2,0.5,0.8,1.3c-0.3,0.5-0.7,1-1.1,1.5
		C841.7,242.9,840.8,242.9,841.1,241.1z"/>
	<linearGradient id="SVGID_9_" gradientUnits="userSpaceOnUse" x1="842.0103" y1="239.0896" x2="844.5961" y2="238.6337">
		<stop  offset="0" style="stop-color:#CDC228"/>
		<stop  offset="1.385960e-002" style="stop-color:#CCB529"/>
		<stop  offset="4.473797e-002" style="stop-color:#C99B2B"/>
		<stop  offset="7.943475e-002" style="stop-color:#C8842C"/>
		<stop  offset="0.1172" style="stop-color:#C6702B"/>
		<stop  offset="0.159" style="stop-color:#C55E2B"/>
		<stop  offset="0.2061" style="stop-color:#C44D2B"/>
		<stop  offset="0.2611" style="stop-color:#C43E2B"/>
		<stop  offset="0.3292" style="stop-color:#C3322A"/>
		<stop  offset="0.4247" style="stop-color:#C32A2A"/>
		<stop  offset="0.6897" style="stop-color:#C3282A"/>
		<stop  offset="0.745" style="stop-color:#C02729"/>
		<stop  offset="0.7972" style="stop-color:#B92527"/>
		<stop  offset="0.8482" style="stop-color:#AD2223"/>
		<stop  offset="0.8984" style="stop-color:#9C1D1D"/>
		<stop  offset="0.948" style="stop-color:#851413"/>
		<stop  offset="0.9965" style="stop-color:#6C0603"/>
		<stop  offset="1" style="stop-color:#6A0502"/>
	</linearGradient>
	<path fill="url(#SVGID_9_)" d="M844.5,238.6c-0.2,1-0.5,1.8-1.5,1.7c-0.7-0.1-1.2-0.6-0.8-1.4c0.3-0.5,0.8-1,1.1-1.4
		C843.8,237.8,844.7,237.8,844.5,238.6z"/>
	<linearGradient id="SVGID_10_" gradientUnits="userSpaceOnUse" x1="1022.004" y1="689.2532" x2="1024.5535" y2="688.8036">
		<stop  offset="0" style="stop-color:#CDC228"/>
		<stop  offset="1.385960e-002" style="stop-color:#CCB529"/>
		<stop  offset="4.473797e-002" style="stop-color:#C99B2B"/>
		<stop  offset="7.943475e-002" style="stop-color:#C8842C"/>
		<stop  offset="0.1172" style="stop-color:#C6702B"/>
		<stop  offset="0.159" style="stop-color:#C55E2B"/>
		<stop  offset="0.2061" style="stop-color:#C44D2B"/>
		<stop  offset="0.2611" style="stop-color:#C43E2B"/>
		<stop  offset="0.3292" style="stop-color:#C3322A"/>
		<stop  offset="0.4247" style="stop-color:#C32A2A"/>
		<stop  offset="0.6897" style="stop-color:#C3282A"/>
		<stop  offset="0.745" style="stop-color:#C02729"/>
		<stop  offset="0.7972" style="stop-color:#B92527"/>
		<stop  offset="0.8482" style="stop-color:#AD2223"/>
		<stop  offset="0.8984" style="stop-color:#9C1D1D"/>
		<stop  offset="0.948" style="stop-color:#851413"/>
		<stop  offset="0.9965" style="stop-color:#6C0603"/>
		<stop  offset="1" style="stop-color:#6A0502"/>
	</linearGradient>
	<path fill="url(#SVGID_10_)" d="M1023.7,687.4c0.8,0.9,1.4,2.1,0.2,2.9c-1.1,0.8-1.6-0.4-2-1.3
		C1022.6,688.5,1023.1,688,1023.7,687.4z"/>
	<linearGradient id="SVGID_11_" gradientUnits="userSpaceOnUse" x1="901.7171" y1="352.4372" x2="902.687" y2="352.2662">
		<stop  offset="0" style="stop-color:#CDC228"/>
		<stop  offset="1.385960e-002" style="stop-color:#CCB529"/>
		<stop  offset="4.473797e-002" style="stop-color:#C99B2B"/>
		<stop  offset="7.943475e-002" style="stop-color:#C8842C"/>
		<stop  offset="0.1172" style="stop-color:#C6702B"/>
		<stop  offset="0.159" style="stop-color:#C55E2B"/>
		<stop  offset="0.2061" style="stop-color:#C44D2B"/>
		<stop  offset="0.2611" style="stop-color:#C43E2B"/>
		<stop  offset="0.3292" style="stop-color:#C3322A"/>
		<stop  offset="0.4247" style="stop-color:#C32A2A"/>
		<stop  offset="0.6897" style="stop-color:#C3282A"/>
		<stop  offset="0.745" style="stop-color:#C02729"/>
		<stop  offset="0.7972" style="stop-color:#B92527"/>
		<stop  offset="0.8482" style="stop-color:#AD2223"/>
		<stop  offset="0.8984" style="stop-color:#9C1D1D"/>
		<stop  offset="0.948" style="stop-color:#851413"/>
		<stop  offset="0.9965" style="stop-color:#6C0603"/>
		<stop  offset="1" style="stop-color:#6A0502"/>
	</linearGradient>
	<path fill="url(#SVGID_11_)" d="M902.4,352c0.1,0.1,0.2,0.2,0.4,0.4c-0.2,0.1-0.4,0.3-0.7,0.3c-0.1,0-0.2-0.2-0.3-0.3
		C901.9,352.3,902.1,352.1,902.4,352z"/>
	<linearGradient id="SVGID_12_" gradientUnits="userSpaceOnUse" x1="965.5518" y1="548.6639" x2="965.9044" y2="548.6017">
		<stop  offset="0" style="stop-color:#CDC228"/>
		<stop  offset="1.385960e-002" style="stop-color:#CCB529"/>
		<stop  offset="4.473797e-002" style="stop-color:#C99B2B"/>
		<stop  offset="7.943475e-002" style="stop-color:#C8842C"/>
		<stop  offset="0.1172" style="stop-color:#C6702B"/>
		<stop  offset="0.159" style="stop-color:#C55E2B"/>
		<stop  offset="0.2061" style="stop-color:#C44D2B"/>
		<stop  offset="0.2611" style="stop-color:#C43E2B"/>
		<stop  offset="0.3292" style="stop-color:#C3322A"/>
		<stop  offset="0.4247" style="stop-color:#C32A2A"/>
		<stop  offset="0.6897" style="stop-color:#C3282A"/>
		<stop  offset="0.745" style="stop-color:#C02729"/>
		<stop  offset="0.7972" style="stop-color:#B92527"/>
		<stop  offset="0.8482" style="stop-color:#AD2223"/>
		<stop  offset="0.8984" style="stop-color:#9C1D1D"/>
		<stop  offset="0.948" style="stop-color:#851413"/>
		<stop  offset="0.9965" style="stop-color:#6C0603"/>
		<stop  offset="1" style="stop-color:#6A0502"/>
	</linearGradient>
	<path fill="url(#SVGID_12_)" d="M965.9,549c-0.1-0.2-0.2-0.4-0.4-0.6c0.1,0,0.2-0.1,0.3-0.1C965.8,548.5,965.8,548.7,965.9,549
		C965.8,548.9,965.9,549,965.9,549z"/>
	<linearGradient id="SVGID_13_" gradientUnits="userSpaceOnUse" x1="975.9445" y1="163.4675" x2="976.5907" y2="163.3535">
		<stop  offset="0" style="stop-color:#CDC228"/>
		<stop  offset="1.385960e-002" style="stop-color:#CCB529"/>
		<stop  offset="4.473797e-002" style="stop-color:#C99B2B"/>
		<stop  offset="7.943475e-002" style="stop-color:#C8842C"/>
		<stop  offset="0.1172" style="stop-color:#C6702B"/>
		<stop  offset="0.159" style="stop-color:#C55E2B"/>
		<stop  offset="0.2061" style="stop-color:#C44D2B"/>
		<stop  offset="0.2611" style="stop-color:#C43E2B"/>
		<stop  offset="0.3292" style="stop-color:#C3322A"/>
		<stop  offset="0.4247" style="stop-color:#C32A2A"/>
		<stop  offset="0.6897" style="stop-color:#C3282A"/>
		<stop  offset="0.745" style="stop-color:#C02729"/>
		<stop  offset="0.7972" style="stop-color:#B92527"/>
		<stop  offset="0.8482" style="stop-color:#AD2223"/>
		<stop  offset="0.8984" style="stop-color:#9C1D1D"/>
		<stop  offset="0.948" style="stop-color:#851413"/>
		<stop  offset="0.9965" style="stop-color:#6C0603"/>
		<stop  offset="1" style="stop-color:#6A0502"/>
	</linearGradient>
	<path fill="url(#SVGID_13_)" d="M976.6,163.3c-0.1,0.2-0.2,0.4-0.3,0.6c-0.1-0.1-0.3-0.2-0.3-0.3c0.1-0.2,0.2-0.4,0.3-0.6
		C976.4,163.1,976.5,163.2,976.6,163.3z"/>
	<linearGradient id="SVGID_14_" gradientUnits="userSpaceOnUse" x1="944.3198" y1="147.4952" x2="946.1036" y2="147.1806">
		<stop  offset="0" style="stop-color:#CDC228"/>
		<stop  offset="1.385960e-002" style="stop-color:#CCB529"/>
		<stop  offset="4.473797e-002" style="stop-color:#C99B2B"/>
		<stop  offset="7.943475e-002" style="stop-color:#C8842C"/>
		<stop  offset="0.1172" style="stop-color:#C6702B"/>
		<stop  offset="0.159" style="stop-color:#C55E2B"/>
		<stop  offset="0.2061" style="stop-color:#C44D2B"/>
		<stop  offset="0.2611" style="stop-color:#C43E2B"/>
		<stop  offset="0.3292" style="stop-color:#C3322A"/>
		<stop  offset="0.4247" style="stop-color:#C32A2A"/>
		<stop  offset="0.6897" style="stop-color:#C3282A"/>
		<stop  offset="0.745" style="stop-color:#C02729"/>
		<stop  offset="0.7972" style="stop-color:#B92527"/>
		<stop  offset="0.8482" style="stop-color:#AD2223"/>
		<stop  offset="0.8984" style="stop-color:#9C1D1D"/>
		<stop  offset="0.948" style="stop-color:#851413"/>
		<stop  offset="0.9965" style="stop-color:#6C0603"/>
		<stop  offset="1" style="stop-color:#6A0502"/>
	</linearGradient>
	<path fill="url(#SVGID_14_)" d="M946.1,147.4c-0.3,0.6-0.7,1.1-1.3,0.8c-0.9-0.5-0.5-1.2,0.1-1.8
		C945.3,146.7,945.7,147.1,946.1,147.4z"/>
	<linearGradient id="SVGID_15_" gradientUnits="userSpaceOnUse" x1="800.3402" y1="599.7004" x2="801.5268" y2="599.4912">
		<stop  offset="0" style="stop-color:#CDC228"/>
		<stop  offset="1.385960e-002" style="stop-color:#CCB529"/>
		<stop  offset="4.473797e-002" style="stop-color:#C99B2B"/>
		<stop  offset="7.943475e-002" style="stop-color:#C8842C"/>
		<stop  offset="0.1172" style="stop-color:#C6702B"/>
		<stop  offset="0.159" style="stop-color:#C55E2B"/>
		<stop  offset="0.2061" style="stop-color:#C44D2B"/>
		<stop  offset="0.2611" style="stop-color:#C43E2B"/>
		<stop  offset="0.3292" style="stop-color:#C3322A"/>
		<stop  offset="0.4247" style="stop-color:#C32A2A"/>
		<stop  offset="0.6897" style="stop-color:#C3282A"/>
		<stop  offset="0.745" style="stop-color:#C02729"/>
		<stop  offset="0.7972" style="stop-color:#B92527"/>
		<stop  offset="0.8482" style="stop-color:#AD2223"/>
		<stop  offset="0.8984" style="stop-color:#9C1D1D"/>
		<stop  offset="0.948" style="stop-color:#851413"/>
		<stop  offset="0.9965" style="stop-color:#6C0603"/>
		<stop  offset="1" style="stop-color:#6A0502"/>
	</linearGradient>
	<path fill="url(#SVGID_15_)" d="M800.3,599.3c0.4-0.1,0.8-0.2,1.2-0.3c-0.2,0.4-0.3,0.8-0.5,1.1
		C800.7,599.8,800.5,599.6,800.3,599.3z"/>
</g>
<g>
	<g>
		<path d="M145.9,585.9V437.2H194c18.3,0,30.1,0.7,35.7,2.2c8.5,2.2,15.6,7.1,21.4,14.6c5.7,7.5,8.6,17.1,8.6,28.9
			c0,9.1-1.7,16.8-5,23c-3.3,6.2-7.5,11.1-12.6,14.7c-5.1,3.5-10.3,5.9-15.6,7c-7.2,1.4-17.5,2.1-31.1,2.1h-19.6v56.1H145.9z
			 M175.9,462.4v42.2h16.4c11.8,0,19.7-0.8,23.7-2.3c4-1.6,7.1-4,9.4-7.3c2.3-3.3,3.4-7.2,3.4-11.6c0-5.4-1.6-9.9-4.8-13.4
			c-3.2-3.5-7.2-5.7-12.1-6.6c-3.6-0.7-10.8-1-21.6-1H175.9z"/>
		<path d="M284.5,585.9V437.2h63.2c15.9,0,27.4,1.3,34.6,4c7.2,2.7,13,7.4,17.3,14.2c4.3,6.8,6.5,14.6,6.5,23.4
			c0,11.2-3.3,20.4-9.8,27.6c-6.6,7.3-16.4,11.8-29.4,13.7c6.5,3.8,11.8,7.9,16.1,12.5c4.2,4.5,9.9,12.6,17.1,24.1l18.2,29h-35.9
			l-21.7-32.3c-7.7-11.6-13-18.8-15.8-21.9c-2.8-3-5.8-5.1-9-6.2c-3.2-1.1-8.2-1.7-15.1-1.7h-6.1v62.1H284.5z M314.5,500.1h22.2
			c14.4,0,23.4-0.6,27-1.8c3.6-1.2,6.4-3.3,8.4-6.3c2-3,3-6.7,3-11.2c0-5-1.3-9-4-12.1c-2.7-3.1-6.4-5-11.3-5.8
			c-2.4-0.3-9.7-0.5-21.9-0.5h-23.4V500.1z"/>
		<path d="M428.3,512.4c0-15.1,2.3-27.9,6.8-38.1c3.4-7.6,8-14.4,13.8-20.4c5.8-6,12.3-10.5,19.2-13.4c9.3-3.9,19.9-5.9,32-5.9
			c21.9,0,39.4,6.8,52.6,20.4c13.1,13.6,19.7,32.5,19.7,56.7c0,24-6.5,42.8-19.6,56.3c-13,13.6-30.5,20.3-52.3,20.3
			c-22.1,0-39.7-6.7-52.7-20.2C434.8,554.7,428.3,536.1,428.3,512.4z M459.2,511.4c0,16.8,3.9,29.6,11.7,38.3
			c7.8,8.7,17.6,13,29.6,13c12,0,21.8-4.3,29.5-12.9c7.7-8.6,11.5-21.5,11.5-38.8c0-17-3.7-29.7-11.2-38.1
			c-7.5-8.4-17.4-12.6-29.8-12.6c-12.4,0-22.3,4.2-29.9,12.7C463,481.5,459.2,494.3,459.2,511.4z"/>
	</g>
	<g>
		<path d="M1097.6,585.9V437.2h56.1c9.9,0,17.4,0.5,22.6,1.4c7.3,1.2,13.4,3.5,18.4,6.9c4.9,3.4,8.9,8.2,11.9,14.3
			c3,6.2,4.5,12.9,4.5,20.3c0,12.6-4,23.3-12.1,32.1c-8,8.8-22.6,13.1-43.6,13.1h-38.1v60.4H1097.6z M1117.3,507.9h38.4
			c12.7,0,21.7-2.4,27.1-7.1c5.3-4.7,8-11.4,8-20c0-6.2-1.6-11.5-4.7-16c-3.1-4.4-7.3-7.4-12.4-8.8c-3.3-0.9-9.4-1.3-18.4-1.3h-38
			V507.9z"/>
		<path d="M1333.7,437.2h19.7v85.9c0,14.9-1.7,26.8-5.1,35.6c-3.4,8.8-9.5,15.9-18.3,21.4c-8.8,5.5-20.4,8.3-34.7,8.3
			c-13.9,0-25.3-2.4-34.2-7.2c-8.9-4.8-15.2-11.7-19-20.8c-3.8-9.1-5.7-21.5-5.7-37.3v-85.9h19.7V523c0,12.9,1.2,22.4,3.6,28.5
			c2.4,6.1,6.5,10.8,12.4,14.1c5.8,3.3,13,5,21.4,5c14.5,0,24.8-3.3,30.9-9.8c6.2-6.6,9.2-19.2,9.2-37.8V437.2z"/>
		<path d="M1385.3,585.9V437.2h19.7v131.1h73.2v17.5H1385.3z"/>
		<path d="M1494.9,538.1l18.6-1.6c0.9,7.4,2.9,13.5,6.1,18.3c3.2,4.8,8.2,8.6,15,11.6c6.8,2.9,14.4,4.4,22.8,4.4
			c7.5,0,14.1-1.1,19.9-3.3c5.7-2.2,10-5.3,12.8-9.2c2.8-3.9,4.2-8.1,4.2-12.7c0-4.7-1.4-8.7-4.1-12.2c-2.7-3.5-7.2-6.4-13.4-8.8
			c-4-1.6-12.8-4-26.5-7.3c-13.7-3.3-23.2-6.4-28.7-9.3c-7.1-3.7-12.4-8.3-15.9-13.8c-3.5-5.5-5.2-11.7-5.2-18.5
			c0-7.5,2.1-14.5,6.4-21c4.3-6.5,10.5-11.5,18.7-14.9c8.2-3.4,17.3-5.1,27.3-5.1c11,0,20.7,1.8,29.2,5.3
			c8.4,3.5,14.9,8.8,19.4,15.7c4.5,6.9,7,14.7,7.3,23.4l-18.9,1.4c-1-9.4-4.4-16.5-10.3-21.3c-5.8-4.8-14.5-7.2-25.9-7.2
			c-11.9,0-20.6,2.2-26,6.5c-5.4,4.4-8.2,9.6-8.2,15.8c0,5.3,1.9,9.7,5.8,13.2c3.8,3.4,13.7,7,29.7,10.6c16,3.6,27,6.8,32.9,9.5
			c8.7,4,15,9,19.2,15.2c4.1,6.1,6.2,13.2,6.2,21.1c0,7.9-2.3,15.4-6.8,22.4c-4.5,7-11,12.4-19.5,16.3c-8.5,3.9-18,5.8-28.6,5.8
			c-13.5,0-24.7-2-33.8-5.9c-9.1-3.9-16.2-9.8-21.4-17.7C1497.9,556.9,1495.2,548,1494.9,538.1z"/>
		<path d="M1640.5,585.9V437.2H1748v17.5h-87.8v45.5h82.2v17.4h-82.2v50.6h91.3v17.5H1640.5z"/>
	</g>
</g>
</svg>
