<?xml version="1.0" encoding="utf-8"?>
<!-- Generator: Adobe Illustrator 18.1.1, SVG Export Plug-In . SVG Version: 6.00 Build 0)  -->
<svg version="1.1" id="Layer_1" xmlns="http://www.w3.org/2000/svg" xmlns:xlink="http://www.w3.org/1999/xlink" x="0px" y="0px"
	 viewBox="0 0 702 691.8" enable-background="new 0 0 702 691.8" xml:space="preserve">
<linearGradient id="SVGID_1_" gradientUnits="userSpaceOnUse" x1="111.6927" y1="728.8967" x2="590.3073" y2="-37.0467">
	<stop  offset="0" style="stop-color:#C3282A"/>
	<stop  offset="0.1586" style="stop-color:#BF282A"/>
	<stop  offset="0.3081" style="stop-color:#B32A2B"/>
	<stop  offset="0.454" style="stop-color:#9F2B2C"/>
	<stop  offset="0.5976" style="stop-color:#862A2D"/>
	<stop  offset="0.7397" style="stop-color:#67262D"/>
	<stop  offset="0.8786" style="stop-color:#461D2A"/>
	<stop  offset="1" style="stop-color:#270F22"/>
</linearGradient>
<path fill="url(#SVGID_1_)" d="M628.5,691.8h-555C32.9,691.8,0,658.9,0,618.3V73.5C0,32.9,32.9,0,73.5,0h555
	C669.1,0,702,32.9,702,73.5v544.8C702,658.9,669.1,691.8,628.5,691.8z"/>
<g>
	<path fill="#F1F2F2" d="M448.2,460.8c-1.9-1.7-3,0.5-4.2,1.2c-6.3,3.3-12.9,4.9-20.2,3.6c2.8-1.3,5.6-2.4,8.3-3.8
		c13.7-7.2,19.3-19.1,19.8-34c0.4-10.7-1.2-21.2-1.7-32.4c4.9,2.8,9.5,5.6,15.2,5.5c5.6-0.2,10.8-1.5,16.2-5.1
		c-0.5,11.3-3.2,21.3-7.4,32.3c5.4-1.9,8.8-4.9,13.1-7.9c-0.1,14.5-3.8,27.3-9.7,41.1c8.2-3.4,13.6-8.1,18.4-15
		c2.8,9.5,3.9,18.5,4.8,27.5c1.5,14.6,0.9,29.2-1,43.8c-0.3,2.4-4.2,5.6-0.3,7.4c3.5,1.5,7.5,0.1,10.6-2.6c0.4-0.3,0.8-0.6,2-1.5
		c2,18.8,3.7,37.2,6.1,55.6c-10.8-15.6-19.2-32.5-28.1-50.4c-1.6,5.2-3.2,9.2-6.6,12.3c-1.2,1.1-0.4,2.5,0.1,3.7
		c1.6,4.2,3.1,8.4,4.7,12.6c1.7,4.7,2.6,9.3,0.3,14c-0.8,1.6-0.3,2.9,0.4,4.2c4.9,9.4,9.6,18.9,15.2,27.9c0.4,0.9,0.8,2.1,2,1.3
		c1.2-0.8,0.6-2-0.2-2.9c-5.5-13.6-8.5-27.8-10.7-42.2c8.1,17.1,18.6,32.9,25.3,50.8c3.2,8.6,8.2,16.4,11,25.2
		c3.4,10.3,4.5,20.7,2.4,31.5c-0.8,3.9-0.1,8.1-1.1,12.6c-2.9-4.3-6-8.5-8.5-13c-10.6-18.6-24.8-34.7-37.4-51.8
		c-1.3-1.8-2.4-1.7-4.1-0.5c-9.5,6.9-20.1,11.8-31,16.1c-3.1,1.2-4.2,2.6-2.7,5.8c2.8,5.9,4.2,12.5-1.6,16.9
		c-6.4,4.9-13.9,8.7-22.7,6c-3.8-1.2-5.7-4.3-7-7.9c-2.6-6.9-2.6-6.9-9.9-4.7c-8.9,2.7-17.9,5.2-27.2,6.6c-5.2,0.8-10.3,0-15.4-1.1
		c-2.2-0.5-3.4-2.2-4.6-4.1c-2.8-4.3-4.1-9.1-5.7-13.8c-1-2.9-2.6-4.3-5.4-5c-13.9-3.8-27.2-8.9-39.8-15.9c-4.5-2.5-8.7-5.5-12.6-9
		c-0.9-0.8-2-1.6-3-0.6c-1,1,0.4,1.7,0.8,2.5c4.9,9.4,11,17.8,18.3,25.4c8.4,8.7,3.5,23.6-8.4,25.7c-9.3,1.7-18.8,2.5-28.3,3.4
		c-8.5,0.9-16.8,2.6-24.4,8c-0.8-15.9,2.1-30.7,6-45.5c4.1-15.3,7.1-30.8,6.5-46.8c-0.1-3.5-0.9-6.9-1.7-10.2
		c-0.9-3.4-2.5-3.9-5.2-1.7c-30.3,24.8-65.3,34.3-104,31.6c-4.7-0.3-8.9,1.1-13.1,2.7c-11.3,4.1-22.6,7.9-34.4,10.4
		c-23.8,5-43.3-13.5-48.8-29.3c-3.6-10.3-3.9-20.6-1.5-30.9c4.3-18.6,8.7-37.2,14.3-55.6c4.8-15.6,13.3-28.8,23.7-41.1
		c1.9-2.3,3.7-4.5,4.2-7.7c4.3-25.3,16.5-46.2,35.4-63.3c4-3.6,6.8-7,7.7-13c1.8-12.3,7.9-23.2,16-32.8
		c14.8-17.5,32.8-30.4,56.2-31.9c10.2-0.7,18.8-3.3,27.1-8.3c7.4-4.4,15.5-7.6,23.2-11.3c8.8-4.2,17.5-8.8,24.6-15.7
		c8.8-8.6,11.2-19.8,11.1-31.6c-0.1-8.1-2.1-15.8-5.8-23c-0.9-1.7-2-3.5-2.3-5.4c-3.4-18.9-13.6-35.6-17.8-54.3
		c-1.8-8.1-2.7-16.4-3.2-24.7c-0.1-2.2,0-2.2,6.2-4.4c-0.1-1.5-1.4-1.8-2.5-2c-4.3-0.8-3.3-3.9-3-6.6c0.4-3.5,3-2.2,5-2.1
		c2.7,0.2,5.5,1.1,8.7-0.1c-2.4-2.8-5.6-3.4-8.4-4.5c-2.4-1-3.6-2.2-2.2-4.8c1.1-2.1,1.1-5.5,5.3-4c3.2,1.1,6.3,3.1,10.3,2.5
		c-1.9-3.3-5-4.8-7.8-6.4c-2.9-1.7-2.8-3.2-1-5.5c0.6-0.8,1.3-1.6,1.8-2.4c2.2-3.9,4.8-5.8,9.1-2.6c0.6,0.5,1.6,0.6,2.4-0.1
		c0.4-1.9-1.1-2.9-2.1-4.2c-1-1.3-1.7-2.3-0.3-3.8c1.7-1.9,2.8,0,3.8,0.6c1.7,1,3,2.5,4.5,3.9c0.8,0.7,1.6,1.3,2.6,0.6
		c1-0.8,0.7-1.7,0-2.6c-0.1-0.1-0.2-0.3-0.3-0.4c-1.3-2.6-5.2-4.9-3.7-7.5c2.1-3.7,6.3-5.8,10.1-7.9c2.2-1.2,3.4,1.5,5,2.5
		c1,0.6,1.9,1.9,3,1.2c1.3-0.9,0.1-2.1-0.2-3.1c-0.5-1.8-3-3.5,0.2-5.4c3-1.8,3.7,0.9,5.1,2.2c2.2,2.1,3.8,4.9,6.9,6.4
		c1.3-3.9-1.8-6-2.7-8.9c-0.5-1.4-3.2-3.4,0-4.3c2.8-0.9,5.6-4.9,8.7-0.9c2.6,3.4,4.7,7.2,7.5,10.6c0.5-4-1.4-7.4-2.3-11
		c-0.5-2-1.5-3.8,1.6-4.6c2.5-0.6,4.8-1.8,6.1,1.8c0.7,2,1.1,4.2,3.9,5.2c0.7-1.7,1.1-3.2,0.3-5c-0.8-1.8-2.1-3.8,1.1-4.6
		c2.4-0.6,4.7-1.7,5.9,2.1c1.2,3.9,3.2,7.5,5.4,12.5c1.3-5.4-0.2-9.1-0.7-12.9c-0.4-2.9,0.3-3.7,2.8-3.7c3.8-0.1,7.7,0,11.5-0.2
		c2.7-0.1,3.7,1,4.1,3.7c0.6,4.5-0.3,9.3,2.3,14.1c1.6-4.9,1.5-9.4,2.1-13.9c0.3-2.1,0.6-3.7,3.6-3.3c2.8,0.4,3.8,1.3,3.4,4.1
		c-0.2,1.5-0.5,3.2,0.5,5.1c2-1.4,2.4-3.4,3-5.2c0.7-2.1,1.8-3.1,4-2.6c2.6,0.7,1.3,2.5,1.1,4c-0.4,2.2-0.7,4.4-1.2,7.3
		c3.3-1.9,4.3-4.5,5.4-6.8c1.3-2.8,2.8-3.9,5.8-2.7c0.8,0.3,1.6,0.3,2.5,0.5c7.1,1.6,7,1.6,4.4,8.2c-0.5,1.3-2.3,3.3-0.4,4.4
		c2.1,1.3,2.5-1.5,3.5-2.6c1.5-1.5,2.7-3.3,4-5c0.9-1.1,2-1.3,3-0.3c1,0.9,0.3,1.8-0.2,2.7c-0.8,1.4-1.9,2.8-1.8,4.6
		c-0.6,0.6-1,1.2-0.1,1.8c0.6,0.4,1-0.2,1.3-0.8c3-0.7,3.2-4.6,7.5-5.7c-2.4,3.7-4.3,6.5-6.1,9.3c-0.6,0.9-1.9,1.8-0.5,2.9
		c1,0.8,1.8-0.2,2.6-0.8c2-1.7,4.4-3.2,6-5.2c2.9-3.7,5.9-3.7,9.3-1.1c3.7,2.9,9.8,3,10.9,9.1c0,0.3,0.4,0.5,0.7,0.7
		c1.4,0.9,4.1-1.7,4.5,1.2c0.2,1.8-2.7,2.2-3.6,3.8c-0.2,0.4-0.2,0.9-0.3,1.4c2.3,1.1,3.9-0.5,5.6-1.2c1.6-0.6,2.7-0.6,4.1,0.5
		c4.2,3.5,4.3,4.7,0,8.3c-4.8,3.9-9.7,7.6-14.4,11.6c-1.8,1.5-3,1.7-5.1,0.2c-32.6-24-68.4-29.9-106.4-16.4
		c-30.1,10.7-50.8,31.1-56.6,64c-0.2,1-1.6,2.3,0.2,2.8c1.6,0.4,1.6-1.4,1.9-2.4c3.1-10.9,8-20.9,15.2-29.6
		c20.2-24.5,46.6-35.2,77.9-34.8c14.3,0.2,28.2,2.7,41.2,9c8.8,4.3,16.9,9.7,21.7,15.7c-18.2-14.9-41.4-20.4-66.7-18.4
		c-25.5,2-47.3,12-64.1,31.7c-11.4,13.4-16.8,29.4-18.1,46.7c-1,13,0.3,25.9,3.6,38.6c3.2,12.3,8.6,23.9,11.9,36.1
		c0.7,2.7,2,5.4,1.3,8.3c-1.6-0.2-1.2-2.7-3.2-2.8c-0.8,4.8-1.7,9.6-2.4,14.4c-0.2,1.5-0.2,3.2,1.3,4c6.7,3.5,8.1,10.4,10.1,16.6
		c1.5,4.6,3.1,6.2,8.3,4.3c10.5-3.7,21.3-6.6,32.5-7.8c4.7-0.5,9.4-0.4,13.8,0.8c2.6,0.7,3.8-0.3,5.5-1.9c2.1-1.9,1-3.5,0.2-5.3
		c-4.2-9.2-8-18.6-12.7-27.6c-3.4-6.4-10.1-8.8-16.8-10.2c-6.5-1.4-12.9-0.8-19,2.1c-1.7,0.8-3.1,1.5-3.2-1.5
		c0-9.8-4.6-18.1-9.3-26.1c-23.4-39.8,1.5-101.9,56.2-107c12.4-1.2,24,0.9,35.7,5.1c5.1,1.9,8.9,5.4,13.8,7.2
		c-12.3-4.5-24.6-8.7-38.3-6.6c1.2,2.3,3.2,2.1,4.9,2.4c13.1,2.4,24.5,8.5,34.8,16.6c4.3,3.4,7.6,8.1,11.1,12.4
		c1.9,2.4,3.5,2.4,6,1.2c3.4-1.7,7-3.2,10.4-4.9c1.8-0.9,2.9-0.9,3.7,1.4c5.1,15.7,10.4,31.3,8.6,48.3c-0.8,7.2-3.6,13.9-4.9,20.9
		c-1.7,9.7-1.5,19.6-1.4,29.4c0.1,6.6,0,13.3,0,20.9c-5.2-12.4-7.8-24.6-9.5-37.2c-2.6,10.8-3.2,21.7-4.1,32.6
		c-1.6,19.5-1,39,0.3,58.4c0.2,3.6-0.7,4.5-4.3,4.4c-21-0.7-37.7-9.7-50.9-25.8c-1.3-1.6-2.4-5-5.1-2.9c-2.5,2-5.9,4.3-4.3,8.6
		c0.6,1.6,1.3,3.1,1.6,4.7c1,5,3,8.3,9,7.9c3.5-0.2,6.1,2.5,6.9,6.2c0.8,3.9,3.2,5.6,6.9,6.8c11.3,3.5,22.8,6.7,32.6,13.6
		c4.4,3.1,8.8,4.5,14.1,5.3c21.4,3.2,37.3,14.7,47.2,33.8c5.9,11.4,8,23.8,5,36.6c-0.6,2.6-0.2,4.7,1.2,7c14.7,24.1,20,50.2,15.8,78
		c-1.1,6.9,2.7,12.1,5.4,17.5c6.8,13.8,11,28.4,14.5,43.3c4.1,17.8,5.6,35.9,5.8,54.1c0.1,8.5,0.6,17,1.8,26.5
		c-4.1-4.6-6-9.2-7.7-14c-4.5-13-5.2-26.8-6.8-40.3c-2.8-24.5-7.9-48.6-15.7-72.1c-2.3,0-1.6,2.9-4,3c-3.2-29.7-1-60.3-14.6-88.5
		c-2.9,1.6-3.4,5.2-6.5,6.8c2.7-11.3,3.9-22.3,2.1-33.5c-4.7-29.7-25.7-49.2-55.6-51.5c-3.3-0.3-6.7,0-10-0.3
		c-4.1-0.3-5.4,0.8-3.6,5.1c2.3,5.2,4.1,10.6,5.8,15.9c3,9.1,1,15.7-6.3,21.9c-12,10.1-26.3,16.3-40.5,22.5
		c-4.3,1.9-8.6,3.5-12.9,5.4c-1.2,0.5-3.6,0.2-3,2.4c0.4,1.7,1.8,3.3,4,3c6.2-0.8,11.8,1.9,17.6,3.1c7.4,1.5,10.7,6.1,11.2,13.8
		c0.1,1,0,2.2,0.5,2.9c4.5,6.1,5.4,13.8,8.8,20.4c1.1,2.1,2,4.3,1.7,6.6c-1.2,10.1-2.4,20.3-11.6,27c-1.6,1.1-2.5,2.3-1.6,4.6
		c1.2,3.3,2.2,4.9,6.3,3.5c9-3,18.2-5.4,27.3-8.1c1.5-0.5,3.4-0.5,4-2.5C440.2,479.2,445.8,470.6,448.2,460.8
		c-0.1-0.3-0.1-0.5,0-0.7c-0.1,0-0.2,0.1-0.3,0.1C447.9,460.4,448,460.6,448.2,460.8z M330.9,144.2c12-13.7,27.1-21,45.3-21.8
		c16.5-0.7,30.9,4.8,44.3,14.6c-5.3,4.4-11.1,7.2-16.6,10.6c-1.2,0.7-3.3,1.3-2.6,3.1c0.9,2.2,2.9,0.8,4.3,0.2
		c7.8-3,15.5-6,23.2-9.1c1.5-0.6,3.3-0.9,3.3-3.2c0-2-1.3-2.9-2.6-4c-0.7-0.6-1.8-0.9-2.5-1.6c-14.9-14.4-33.1-20.2-53.4-19.6
		c-20.6,0.6-34.3,12.2-44.9,28.6c-1.9,1.1-2.8,2.9-1,4.3C329.6,147.8,330.4,145.8,330.9,144.2z M282.6,511.1
		c0.2,0.3,0.5,0.6,0.7,0.8c-1.4,4.3-4.1,8.3-4,13.5c1.1-0.3,1.8-0.4,2.5-0.7c14-5.5,27.4-12.2,39.6-21.1c5.7-4.2,11.8-6,18.6-5.9
		c6.5,0.1,13,0.3,19.5,0.5c2.4,0.1,4.6-0.1,6.9-0.9c9.3-3.6,18.3-7.9,27.1-12.8c7.2-4,8.8-7.4,6.8-15.5c-1.4-5.6-3.6-11.1-4.1-16.9
		c-0.6-6.9-3.2-12.7-8.1-17.7c-3.6-3.6-8.1-5.2-12.7-6.6c-3-0.9-4.6,2.1-6.8,3.5c-6.6,4.1-13.6,7-21.2,8.5c-1.8,0.4-3.8,1-4.1-1.9
		c-0.5-4-2.2-2.9-4-1c-4.6,4.9-7.9,10.7-10.3,17c-3.7,9.8-8.7,19.1-17.9,24.5c-5.8,3.4-12.7,4.8-19.1,7.2
		c-24.5,9.2-50.2,12.5-75.9,15.6c-9.6,1.2-19.2,2.7-28.9,3.7c-18,2-35.7,6.1-53.3,10.9c-15.8,4.3-31.2,9.5-43.4,21.3
		c-0.8,0.7-1.6,1.8-3.3,1.4c-1.2-12.2,1.7-23.9,9.9-32.7c5.9-6.3,10.1-13,12.7-20.9c2.3-6.9,4.4-13.9,6.4-21
		c3.5-12.3,6.1-24.9,11.5-36.6c2.5-5.4,5.3-10.6,9.9-15.1c3.4,9.8,7.6,18.6,12.5,26.8c5.1,8.5,8.7,17.5,11.1,27.4
		c10.3-15.6,14.4-49.3,7.7-65c-2.1,9.3-4,17.9-6,26.5c-2.8-13.3-3.4-26.6-2.1-39.9c1-10.7,1.8-21.8,8.2-30.5
		c17.4-23.9,38.8-40.5,70.9-34.8c4.5,0.8,9-3.2,9.3-7.8c0.2-2.5-0.5-4.1-3.2-4.8c-9.6-2.3-19.3-3.9-29.2-2.1
		c-26.6,4.7-44.8,20.7-57.8,43.4c-2.8,4.8-5.7,9.7-6.7,15.2c-3.6,18.9-2.4,37.8,0.7,57.8c-7.5-12.5-10.7-25.2-12.4-39.6
		c-24.3,25.3-32.1,56.9-40.6,89.3c-1.3-4.8-1.7-8.5-1.8-12.2c0-0.8,0-1.8-1.1-1.9c-0.7-0.1-1.2,0.2-1.6,0.9
		c-5.2,10.2-11.6,19.8-15.1,30.8c-6.5,20.2-9.4,41.2-13.8,61.8c-1,4.6-0.8,9.5,1,14.3c4.7,13,21.4,18.7,37.2,15.7
		c-10.9-3.1-19.2-8.4-25.4-18.5c20.7,5.8,40.6,9.2,61,9c26.5-0.2,52.8-8.1,58.2-14c-14.7,0.1-29.3,0.6-43.7-3.5
		c1.2-1.8,2.8-1.6,4.2-1.9c30.3-5.3,59.5-14.5,87.8-26.3C258.9,523.2,270.6,516.8,282.6,511.1z M203.9,397c-0.1,1.4,0.7,1.8,1.4,2.3
		c16.9,12.4,28.2,28.9,36.5,47.9c3.1,7.2,6.6,14.2,11.8,20.2c5,5.8,11,11.6,18.3,12.2c8.3,0.6,16.4-3.5,24.6-7.2
		c-22.8-2.4-35.3-20.3-52.5-32.8c6.7,0.8,11.9,3.2,16.5,6.3c14.1,9.5,29.5,15.1,46.4,17.1c9.8,1.2,10.1,1.7,12.4-8.1
		c2.4-10.3,6.4-19.6,13.7-27.2c0.1-0.1,0-0.4-0.1-0.9c-0.7,0.2-1.3,0.3-1.9,0.5c-16.3,5.2-32.5,10.6-49.5,12.5
		c-8.1,0.9-16.7,1.2-22.9-5.6c-10.5-11.6-21.9-22-35.4-29.8C217.2,401,210.9,398.1,203.9,397z M418.1,370.7c6.6-0.4,7-0.9,4.9-6.9
		c-2.5-6.9-5.2-13.7-7.5-20.7c-1-3.2-2.8-4.2-5.9-3.9c-7.6,0.8-15.2,1.8-22.6,3.7c-35.6,9.1-70.1,21.3-103.4,36.9
		c-8.9,4.2-17.6,9.1-25.7,14.9c-3.4,2.4-4.8,4.8-2.8,9.1c3.1,6.9,5.6,14.1,8.4,21.1c0.4,1.1,1.2,3,1.9,2.7c2.4-1,4.6-2.5,6.7-4
		c1.7-1.2,1-2.9,0.5-4.5c-1.9-5.5-3.6-11-6-16.3c-1.7-3.7-0.9-5.4,2.6-7.3c28.7-15.9,59.2-27.2,90.3-37.3c2.6-0.9,3.6,0,4.4,2.3
		c1.4,4.1,3,8.1,4.5,12.2c3.2,8.9,3.1,8.7,12.2,6.1c3.5-1,3.6-2.5,2.4-5.3c-2.1-5.2-4-10.6-5.9-15.9c-0.6-1.8-2.8-4.2,1.1-5
		c2.6-0.5,5.3-2.3,6.6,2.3c1.7,6.1,4.3,11.9,6.3,17.9c1.3,3.9,3.7,2.2,6,1.7c2.7-0.6,2.2-2.3,1.5-4.2c-1.5-3.9-2.8-7.8-4.2-11.7
		c-3.5-9.5-3.4-9.3,6.7-11.1c3.3-0.6,4.8,0.2,5.8,3.3c1.7,5.4,4,10.6,5.7,16C413.5,369.8,414.9,371.7,418.1,370.7z M475.2,525.5
		c6.6,0,6.8-0.1,4.6-6.3c-2.4-7.1-5.3-14-7.6-21.1c-1-2.9-2.6-3.4-5.2-3.3c-9.7,0.4-19.2,2.2-28.5,4.7
		c-29.5,7.8-58.3,17.8-86.2,30.1c-13.3,5.8-26.3,12.1-38.1,20.8c-2.7,2-3.1,3.8-2.2,7.1c2,7.1,5.5,13.7,7.9,20.6
		c0.6,1.7,0.5,4.9,3.8,3.9c4.4-1.4,6.8-5,5.6-8.2c-2-5.6-3.9-11.3-6.3-16.8c-1.4-3.2-0.5-4.7,2.3-6.3c6.8-3.9,13.8-7.4,20.9-10.8
		c22.5-10.6,45.7-19.2,69.4-26.8c3.2-1,4.5-0.3,5.4,2.7c1.3,4.1,2.9,8.1,4.4,12.2c3.2,8.4,3.2,8.3,11.8,5.5c2.9-1,3.7-2.1,2.5-5
		c-2.1-5.2-4-10.6-5.9-15.9c-0.7-1.9-2.8-4.2,1.2-5.4c3.3-1,5.5-1.2,6.7,2.9c1.8,6,4.3,11.9,6.4,17.9c1.3,3.7,3.9,1.4,5.8,1.2
		c2.5-0.3,2-2,1.4-3.8c-1.5-3.9-2.9-7.8-4.3-11.7c-3.6-10.1-3.6-10,7.1-11.8c3.1-0.5,4.5,0.3,5.4,3.4c1.7,5.4,3.9,10.6,5.7,16
		C470.2,524.5,471.6,526.7,475.2,525.5z M475.7,563.3c5.2-0.1,5.7-0.7,4-5.6c-1.9-5.3-4.1-10.6-5.8-15.9c-1.1-3.4-3.1-4.4-6.3-3.8
		c-5.7,1-11.5,1.8-17.2,3.1c-27.6,6.2-53.9,16.1-79.7,27.4c-9.9,4.3-19.6,9.3-28.6,15.4c-1.9,1.3-4.8,2.4-3.8,5.7
		c1.8,5.8,3.5,11.6,5.6,17.2c2.3,6,2.6,5.8,7.7,2.2c2-1.4,1.5-2.5,0.9-4.1c-1.6-4.4-2.8-8.9-4.7-13.1c-1.8-3.8-0.9-5.7,2.8-7.7
		c20.6-11.1,42.2-19.9,64.3-27.4c4.7-1.6,10-5.5,14-3.5c3.7,1.9,3.9,8.4,5.5,12.9c2.5,6.6,2.4,6.5,9.4,4.7c3.1-0.8,3.7-2,2.5-4.9
		c-1.8-4.3-3.2-8.8-4.8-13.1c-0.8-2.2-1.5-3.8,1.7-4.8c2.9-0.9,4.3-0.3,5.1,2.6c0.8,2.9,1.9,5.7,3.1,8.4c1,2.3,1.4,5.8,5.2,4.4
		c3.7-1.3,1.5-4.1,0.9-6.3c-0.6-2.2-1.3-4.5-2.4-6.6c-2.5-4.5-0.3-5.8,3.8-6.1c0.8-0.1,1.7-0.2,2.5-0.4c3.2-1.1,4.8,0,5.8,3.3
		c1.4,4.6,3.3,9.1,4.9,13.6C472.5,562.8,473.6,563.9,475.7,563.3z M378.7,176.3c3.2,3.4,7.3,4.1,11.2,5c4.2,1,6.7,3.1,8.5,7.2
		c5.5,12.6,14.2,22.6,27.4,27.6c3.7,1.4,4.1,3.2,3.6,6.7c-3.2,20.7-6.7,41.5-5.6,62.6c0.2,3.5-0.5,4.4-4,2.9
		c-11.9-4.9-22-12.4-30.9-21.6c-1.1-1.1-2.2-3.2-4-1.9c-1.9,1.4-0.3,3.2,0.6,4.4c11.4,14.8,24.6,27,43.7,30.9c5.9,1.2,6,1.1,5.6-4.7
		c-1.9-27-1.4-53.9,3-80.7c0.7-4.2-0.1-5.7-4.5-6.5c-16-2.8-28.7-9.9-32-27.6c-0.2-1.2-0.6-2.2-2-2.5
		C392.5,176.5,385.5,177.9,378.7,176.3z M385.2,310.6c-4.4,0.7-8.9,1.3-13.3,2.2c-25.5,5.3-49.9,14.4-74,24
		c-13.7,5.4-26.8,11.9-39.1,19.8c-3.5,2.3-5.2,4.7-3,8.9c1.7,3.4,3.1,7.1,3.9,10.8c1.2,4.8,3.1,5.1,7,2.5c2.1-1.4,2.1-2.5,1.3-4.4
		c-1.3-3.4-2.5-6.8-3.8-10.1c-1.2-3-0.9-4.9,2.4-6.7c24.2-13.3,49.9-22.9,76-31.4c2.5-0.8,3.6-0.3,4.4,2.1c1.3,4,2.9,7.8,4.2,11.7
		c0.9,2.7,2.3,3.3,4.8,2.3c1.2-0.5,2.5-1,3.8-1.3c2.7-0.5,3.6-1.7,2.4-4.5c-1.5-3.5-2.8-7.1-3.9-10.8c-0.5-1.5-2.7-3.6,1-4.6
		c2.9-0.8,4.6-0.7,5.6,2.6c1,3.7,2.8,7.1,3.8,10.8c0.9,3,2.4,3.4,5.2,2.4c3.2-1.1,1.9-2.8,1.3-4.7c-1-2.7-1.9-5.3-2.9-8
		c-2.1-5.8-2.1-5.4,4-7.1c4.5-1.2,6.8-0.2,7.9,4.3c0.8,3.4,2.3,6.6,3.6,9.8c1.7,4,4.6,1,6.9,0.9c2.6-0.2,1.7-2.3,1.2-3.8
		c-1.7-4.9-3.7-9.6-5.2-14.5C389.6,311.3,387.9,310.5,385.2,310.6z M172,499.3c2.8,0,4.3,0.3,5.6,0c16.9-4.7,34-8,51.3-10.6
		c3.7-0.5,4.8-1.4,3.4-5.3c-3.3-9.6-5.7-19.4-7.8-29.3c-1.2-5.6-2.4-11.2-3.8-17.7C213.8,464.8,196,483.8,172,499.3z M481.8,595.2
		c-0.8-2.1-1.8-5-2.8-7.8c-4.1-11.2-4.1-11.4-15.7-8.9c-35.5,7.8-69.4,20-100.8,38.6c-2.1,1.2-3,2.5-1.5,5.2c2.3,4.3,3.8,9,5.8,13.5
		c0.6,1.4,0.5,4.2,3.4,2.8c2.3-1.1,3.8-2.6,2.5-5.5c-1.3-2.9-2-6-3.5-8.8c-2.1-4.1-1.3-6.4,2.8-8.6c20.3-11,41.9-18.9,63.7-26.2
		c2.7-0.9,3.6,0.2,4.3,2.4c1.4,4.1,2.7,8.3,4.5,12.2c2,4.3,4.8,0.3,7.2,0.2c2.2-0.1,2.5-1.6,1.7-3.6c-1.5-3.9-2.8-7.8-4.3-11.7
		c-0.8-2-0.9-3.4,1.7-4.1c2.3-0.6,3.4-0.1,4.1,2.1c1.4,4.1,3,8.1,4.4,12.2c0.7,2.2,1.8,2.8,4.1,2.1c2.6-0.7,1.8-2.3,1.3-3.9
		c-1.2-3.3-2.6-6.5-3.6-9.9c-0.5-1.7-3.1-3.9,0.6-5.3c4.9-1.9,8.2-1.2,9.5,2.2c1.5,3.9,3,7.8,4.3,11.7c0.8,2.3,2.4,2.4,4.3,2.1
		C481.3,598.3,482.2,597.6,481.8,595.2z M202.7,409.1c8,10.3,4.7,19.2,0.3,28.1c-4.4,8.9-10.4,16.6-16.7,24.2
		c-11.3,13.6-23.7,26.4-30.9,43.3c2.6,0.6,4.3-0.5,6-2.1c23.9-21.2,43.1-45.5,52.8-76.6C216.6,418.3,213.6,413.6,202.7,409.1z
		 M274.8,579.8c-0.1,2-0.3,4-0.4,6c-1.2,19.1-7.4,37.1-13.5,55c-0.3,1-1.9,2.1-0.2,2.9c1.3,0.6,1.9-0.7,2.6-1.7
		c13.9-21.8,24.7-44.5,20.7-71.5c-1.1-7.4-2.6-14.7-5.7-21.6c-0.4-0.9-0.3-2.5-2.2-1.9c-3.3,0.9-6.1,6.2-5.2,9.7
		C272.8,564.2,274.9,571.8,274.8,579.8z M370.4,300.4c3.6,0,4-0.5,2.9-3.8c-1.2-3.5-2.7-6.8-3.7-10.3c-1-3.3-2.9-3.9-6-3.5
		c-11.8,1.4-23.2,4.5-34.5,8c-12.5,3.9-24.7,8.9-36.9,13.9c-10.4,4.2-20.5,8.7-30.3,14.1c-9.3,5.1-9.1,5.4-5.6,15.2
		c0.5,1.4,0.8,2.9,1.6,4.2c0.6,1,0.2,3.7,2.5,2.5c1.7-0.9,4.4-1.5,3.8-4.5c-0.3-1.3-0.8-2.5-1.3-3.8c-3.2-8.6-3-8.2,4.9-12.6
		c16.4-9.1,33.8-15.6,51.5-21.4c3.6-1.2,7.6-3.8,10.8-3c3.7,0.8,3.2,6.3,4.8,9.6c0.9,1.9,1.7,2.8,4.1,2.3c6.5-1.3,6.8-1.7,4.5-8.1
		c-0.5-1.2-1.1-2.5-1.4-3.7c-0.4-1.5-2.3-3.3,0.8-4.3c2.8-0.9,3.9,0.1,4.7,2.7c0.8,2.7,2,5.3,2.9,8c0.8,2.4,2.5,1.5,4.1,1.2
		c2.2-0.4,2.1-1.7,1.4-3.3c-0.6-1.5-1.1-3.1-1.7-4.7c-2.4-6.3-2.3-6.1,4.2-7.6c3-0.7,4.3,0.2,5.1,2.9c0.7,2.5,1.9,5,2.7,7.5
		C367.2,299.9,368.6,300.7,370.4,300.4z M236,301.9c7.7,2.9,14.5,5.5,21.3,8.1c1.7,0.6,2.9-0.4,4.1-1.1c7.1-4,14.5-7.3,21.9-10.7
		c1.8-0.8,5.2-0.6,4.7-3.5c-0.7-4-2.1-8-4.4-11.5c-0.5-0.7-1.5,0.2-2.1,0.6c-9.5,5.4-20,8.5-30.2,12.2
		C246.5,297.7,241.4,298.6,236,301.9z M443.6,200.2c3.7,0.7,4.3-0.7,3.3-3.5c-2.4-6.4-6.9-10.4-13.2-12.6c-8.1-2.8-16.4-3.8-24.8-5
		c-3.2-0.4-3.5,0.6-2.4,3.2c3.2,7.3,8.5,12.2,16.1,14.5C429.5,199,436.7,200.1,443.6,200.2z M452.1,186.8c0.5-0.5,0.8-0.7,0.8-1
		c3.7-13.9,0.6-27.3-3-40.7c-0.7-2.7-2.7-1.7-4.4-1.1c-9.5,3.5-19,7.1-28.7,9.8c-1.4,0.4-4,0.5-3.4,2.7c0.6,2.1,2.8,1,4.3,0.6
		c7.4-1.8,14.9-3.4,22.2-5.5c3.7-1.1,5.6-1.2,6.4,3.4c1.2,7.3,2.1,14.5,1.4,21.8C447.2,181.3,449.3,184.1,452.1,186.8z M352.3,429.4
		c-2.5-6.9-5-14-7.7-21.1c-0.7-1.7-2.2-0.9-3.5-0.5c-1.2,0.4-2.7,0.9-2.3,2.7c1.6,7.2,5.2,13.7,7.6,20.6c0.6,1.7,2,1.4,3.4,0.9
		C350.9,431.6,352.5,431.6,352.3,429.4z M429.8,625.9c1.1-1.7,1.2-2.6,0.1-2.8c-2-0.2-3.9,0.7-5.5,1.8c-1,0.6-0.6,1.4-0.2,2.4
		c2.7,6.4,5.1,12.8,7.6,19.3c0.4,1.1-0.4,3.1,1.6,3c2.1-0.1,4.2-0.9,6-2.2c0.5-0.4,0.1-1.2-0.4-1.7
		C432.6,640.3,432.6,632.2,429.8,625.9z M305.7,287.4c-0.1-0.3-0.2-0.5-0.2-0.6c-1.5-5.7-4.9-10.8-5.3-16.9
		c-0.1-1.4-2.2-1.3-2.8-0.4c-0.9,1.5-4.8,0.1-3.4,3c2.6,5.4,4.2,11.2,6.5,16.6c0.5,1.2,1.3,1.9,2.7,1.3
		C304.5,289.8,305.9,289.2,305.7,287.4z M323.4,152.9c-0.3,1.8,0.6,1.8,1,2.2c0.4-0.5,0.8-1,1.1-1.5c0.4-0.8-0.3-1.3-0.8-1.3
		C323.8,152.3,323.4,153,323.4,152.9z M326.8,150.4c0.2-0.7-0.7-0.7-1.1-1.1c-0.4,0.5-0.9,0.9-1.1,1.4c-0.4,0.8,0.1,1.3,0.8,1.4
		C326.3,152.1,326.6,151.4,326.8,150.4z M384.6,263.8c-0.2,0.1-0.4,0.2-0.6,0.4c0.1,0.1,0.2,0.3,0.3,0.3c0.2-0.1,0.4-0.2,0.7-0.3
		C384.9,264.1,384.8,264,384.6,263.8z M458.9,75.1c-0.1-0.1-0.2-0.2-0.3-0.3c-0.1,0.2-0.3,0.4-0.3,0.6c0,0.1,0.2,0.2,0.3,0.3
		C458.6,75.5,458.8,75.3,458.9,75.1z"/>
	<path fill="#F1F2F2" d="M518.4,389.8c-1.7-10.1-4.3-19.4-9-28.1c-1.1-2.1,0.6-3.5,1.5-4.9c10.9-16.9,21.8-33.7,32.8-50.6
		c28.3-43.6,56.7-87.3,85.1-130.9c1.5-2.3,1.9-5.2,4.3-7.1c1.5-1.3,0.7-2.8-1.4-2.9c-1.5-0.1-3-0.1-4.5-0.1c-48,0-96,0-144,0.1
		c-3.9,0-6.4-0.2-6.4-5.4c0-4.6-1.4-9.2-2.9-13.6c-1.3-3.8,0.3-4.1,3.4-4.1c22.7,0.1,45.3,0,68,0c42.5,0,85,0,127.5,0
		c1.3,0,2.6,0,4.9,0C624.4,225.2,571.4,307.5,518.4,389.8z"/>
	<path fill="#F1F2F2" d="M23.4,142.1c25.3,0,49.8,0,74.2,0c47.5,0,95,0.1,142.5-0.1c3.8,0,5.5,0.7,5.9,5c0.5,4.7,2,9.4,3.6,14
		c1.2,3.3,0.6,4.2-3,4.2c-20.2-0.2-40.3-0.1-60.5-0.1c-38,0-76,0-114,0c-1.7,0-4-0.9-4.9,1.1c-0.7,1.6,1.1,3,1.9,4.3
		c12.3,19,24.6,38,37,57c17.2,26.5,34.4,53,51.7,79.4c2.2,3.4,2.8,5.6-0.9,8.7c-4.1,3.4-7.4,7.6-10.7,11.8c-1.9,2.4-2.7,2.1-4.2-0.3
		c-9.1-14.3-18.5-28.4-27.6-42.7c-15-23.3-29.9-46.6-44.8-69.9c-15-23.3-29.9-46.7-44.9-70C24.3,144.1,24.1,143.5,23.4,142.1z"/>
	<path fill="#F1F2F2" d="M278.9,248.5c6.6-21.9,3.2-43-5.7-63.5c-5.5-12.7-11.4-25.2-14.1-38.8c-7.8-39,8.9-78.8,42.3-100.4
		c27.1-17.5,57.1-23,88.8-21.2c21.4,1.2,41.9,6.1,61,15.6c17.4,8.7,31.7,21.2,42.7,37.4c1.8,2.7-0.4,3.1-1.8,3.9
		c-8,4.8-16.1,9.4-24,14.2c-4.3,2.6-8.2,5.9-11.5,9c6.9-9.2,16.2-16.3,25.8-23.1c3.7-2.6,3.8-4.4,0.7-7.7c-9-9.6-19.5-17.4-31.2-23
		c-34.7-16.4-71-21.5-108.7-12.6c-25.4,6-47.3,17.9-62.7,39.7c-12,17.1-16.7,36.4-16.1,57.2c0.5,15.9,6,30.4,11.8,44.8
		c7.5,18.3,10.2,37.1,6.6,56.7c-0.7,4.1-2.5,7.8-3.9,11.6C278.9,248.4,278.9,248.5,278.9,248.5z"/>
	<path fill="#F1F2F2" d="M278.2,250.9c-0.2,0.1-0.4,0.2-0.6,0.3c0,0,0.1,0.2,0.1,0.4C277.8,251.3,277.9,251.1,278.2,250.9
		L278.2,250.9z"/>
	<path fill="#F1F2F2" d="M278.1,250.9c1.2-0.5,1.3-1.4,0.8-2.4c0,0,0-0.1,0-0.1C278.5,249.2,277.1,249.7,278.1,250.9
		C278.2,250.9,278.1,250.9,278.1,250.9z"/>
	<path fill="#F1F2F2" d="M330.9,144.2c-0.5,1.6-1.3,3.6-3.2,2.2c-1.8-1.4-0.8-3.2,1-4.3C329.5,142.8,330.2,143.5,330.9,144.2z"/>
	<path fill="#F1F2F2" d="M323.4,152.9c0,0.1,0.4-0.6,1.3-0.6c0.6,0,1.2,0.5,0.8,1.3c-0.3,0.5-0.7,1-1.1,1.5
		C324,154.7,323.1,154.7,323.4,152.9z"/>
	<path fill="#F1F2F2" d="M326.8,150.4c-0.2,1-0.5,1.8-1.5,1.7c-0.7-0.1-1.2-0.6-0.8-1.4c0.3-0.5,0.8-1,1.1-1.4
		C326.1,149.6,327,149.6,326.8,150.4z"/>
	<path fill="#F1F2F2" d="M506,599.2c0.8,0.9,1.4,2.1,0.2,2.9c-1.1,0.8-1.6-0.4-2-1.3C504.8,600.3,505.4,599.7,506,599.2z"/>
	<path fill="#F1F2F2" d="M384.6,263.8c0.1,0.1,0.2,0.2,0.4,0.4c-0.2,0.1-0.4,0.3-0.7,0.3c-0.1,0-0.2-0.2-0.3-0.3
		C384.2,264.1,384.4,263.9,384.6,263.8z"/>
	<path fill="#F1F2F2" d="M448.2,460.8c-0.1-0.2-0.2-0.4-0.4-0.6c0.1,0,0.2-0.1,0.3-0.1C448.1,460.3,448.1,460.5,448.2,460.8
		C448.1,460.7,448.2,460.8,448.2,460.8z"/>
	<path fill="#F1F2F2" d="M458.9,75.1c-0.1,0.2-0.2,0.4-0.3,0.6c-0.1-0.1-0.3-0.2-0.3-0.3c0.1-0.2,0.2-0.4,0.3-0.6
		C458.7,74.9,458.8,75,458.9,75.1z"/>
	<path fill="#F1F2F2" d="M428.4,59.2c-0.3,0.6-0.7,1.1-1.3,0.8c-0.9-0.5-0.5-1.2,0.1-1.8C427.6,58.5,428,58.9,428.4,59.2z"/>
	<path fill="#F1F2F2" d="M282.6,511.1c0.4-0.1,0.8-0.2,1.2-0.3c-0.2,0.4-0.3,0.8-0.5,1.1C283,511.6,282.8,511.4,282.6,511.1z"/>
</g>
</svg>
